<svg width="26" height="26" viewBox="0 0 26 26" fill="none" xmlns="http://www.w3.org/2000/svg">
<path d="M21.6988 7.32773L16.2348 1.86367C16.0824 1.71133 15.8768 1.625 15.6609 1.625H4.875C4.42559 1.625 4.0625 1.98809 4.0625 2.4375V23.5625C4.0625 24.0119 4.42559 24.375 4.875 24.375H21.125C21.5744 24.375 21.9375 24.0119 21.9375 23.5625V7.9041C21.9375 7.68828 21.8512 7.48008 21.6988 7.32773ZM20.0637 8.27734H15.2852V3.49883L20.0637 8.27734ZM20.1094 22.5469H5.89062V3.45312H13.5586V8.9375C13.5586 9.22033 13.6709 9.49157 13.8709 9.69156C14.0709 9.89155 14.3422 10.0039 14.625 10.0039H20.1094V22.5469ZM12.7969 15.6914H8.125C8.01328 15.6914 7.92188 15.7828 7.92188 15.8945V17.1133C7.92188 17.225 8.01328 17.3164 8.125 17.3164H12.7969C12.9086 17.3164 13 17.225 13 17.1133V15.8945C13 15.7828 12.9086 15.6914 12.7969 15.6914ZM7.92188 12.4414V13.6602C7.92188 13.7719 8.01328 13.8633 8.125 13.8633H17.875C17.9867 13.8633 18.0781 13.7719 18.0781 13.6602V12.4414C18.0781 12.3297 17.9867 12.2383 17.875 12.2383H8.125C8.01328 12.2383 7.92188 12.3297 7.92188 12.4414Z" fill="black"/>
</svg>
