<svg width="24" height="24" viewBox="0 0 24 24" fill="none" xmlns="http://www.w3.org/2000/svg">
<g clip-path="url(#clip0_1259_1912)">
<path d="M11.6131 0C8.13308 0 4.03883 0.828 0.543076 2.62875L7.62939e-05 2.9055V3.52275C7.62939e-05 7.23375 0.0698271 17.1367 11.1008 23.691L11.6131 24L12.1253 23.691C23.1563 17.1367 23.2261 7.23375 23.2261 3.52275V2.91375L22.6868 2.6325C19.2338 0.8235 15.0931 0 11.6131 0ZM11.6131 2.01225C14.5898 2.01225 18.1988 2.7735 21.1868 4.21125C21.1786 8.0985 20.7691 15.7545 11.6131 21.5392C2.45708 15.7545 2.04308 8.0985 2.03933 4.21125C5.07458 2.7705 8.63633 2.01225 11.6131 2.01225ZM10.4246 13.1756C10.1629 13.1838 10.9552 13.1828 10.83 13.3081L10.6598 13.4573L10.2261 12.9378C9.27282 11.8331 9.74371 11.8013 9.44296 12L10.6598 13.4573L10.5353 13.3081C10.4023 13.18 10.6092 13.1724 10.4246 13.1756Z" fill="white"/>
<path d="M8.4 7.31579C8.4 6.03632 9.474 5 10.8 5C12.126 5 13.2 6.03632 13.2 7.31579C13.2 8.59526 12.126 9.63158 10.8 9.63158C9.474 9.63158 8.4 8.59526 8.4 7.31579ZM12 13.2211C12 12.6653 12.3 12.1442 12.72 11.7968V11.6579C12.72 11.4321 12.762 11.2179 12.828 11.0095C12.21 10.8705 11.526 10.7895 10.8 10.7895C8.148 10.7895 6 11.8258 6 13.1053V14.2632H12V13.2211ZM18 13.2789V15.3053C18 15.6526 17.64 16 17.22 16H13.92C13.56 16 13.2 15.6526 13.2 15.2474V13.2211C13.2 12.8737 13.56 12.5263 13.92 12.5263V11.6579C13.92 10.8474 14.76 10.2105 15.6 10.2105C16.44 10.2105 17.28 10.8474 17.28 11.6579V12.5263C17.64 12.5263 18 12.8737 18 13.2789ZM16.5 11.6579C16.5 11.1947 16.08 10.9053 15.6 10.9053C15.12 10.9053 14.7 11.1947 14.7 11.6579V12.5263H16.5V11.6579Z" fill="white"/>
</g>
<defs>
<clipPath id="clip0_1259_1912">
<rect width="24" height="24" fill="white"/>
</clipPath>
</defs>
</svg>
