<svg width="24" height="22" viewBox="0 0 24 22" fill="none" xmlns="http://www.w3.org/2000/svg">
<path d="M8.4 7.31579C8.4 6.03632 9.474 5 10.8 5C12.126 5 13.2 6.03632 13.2 7.31579C13.2 8.59526 12.126 9.63158 10.8 9.63158C9.474 9.63158 8.4 8.59526 8.4 7.31579ZM12 13.2211C12 12.6653 12.3 12.1442 12.72 11.7968V11.6579C12.72 11.4321 12.762 11.2179 12.828 11.0095C12.21 10.8705 11.526 10.7895 10.8 10.7895C8.148 10.7895 6 11.8258 6 13.1053V14.2632H12V13.2211ZM18 13.2789V15.3053C18 15.6526 17.64 16 17.22 16H13.92C13.56 16 13.2 15.6526 13.2 15.2474V13.2211C13.2 12.8737 13.56 12.5263 13.92 12.5263V11.6579C13.92 10.8474 14.76 10.2105 15.6 10.2105C16.44 10.2105 17.28 10.8474 17.28 11.6579V12.5263C17.64 12.5263 18 12.8737 18 13.2789ZM16.5 11.6579C16.5 11.1947 16.08 10.9053 15.6 10.9053C15.12 10.9053 14.7 11.1947 14.7 11.6579V12.5263H16.5V11.6579Z" fill="white"/>
</svg>
