<svg width="57" height="57" viewBox="0 0 57 57" fill="none" xmlns="http://www.w3.org/2000/svg">
<rect width="57" height="57" fill="#E9F6EC"/>
<path d="M49.3001 20.1803L54.0525 11.8607L33.8483 2.35357L27.9061 10.6732L23.1513 2.3512L1.75732 11.8607L6.51207 20.1803L1.75732 28.4999L6.51207 30.6137V45.1392L27.9061 54.6463L49.3001 45.1392V30.2836L55.2423 27.3124L49.3001 20.1803Z" fill="white"/>
<path d="M33.8485 38.0071L27.9062 29.6875V54.6487L49.2978 45.1392V30.2836L33.8485 38.0071ZM6.51221 20.1803L27.9062 10.6732L49.2978 20.1803L27.9062 29.6875L6.51221 20.1803Z" fill="#7A9443"/>
<path d="M6.51207 30.6139V45.1394L27.9061 54.6465L49.3001 45.1394V30.2814M27.9061 54.6465V29.6876M6.51207 20.1805L1.75732 11.8609L23.1513 2.35376L27.9061 10.6734L33.8483 2.35376L54.0525 11.8609L49.3001 20.1805" stroke="#3D5F32" stroke-linecap="round" stroke-linejoin="round"/>
<path d="M6.51207 20.1803L1.75732 28.4999L23.1513 38.007L27.9061 29.6874L33.8483 38.007L55.2423 27.3124L49.2977 20.1803" stroke="#3D5F32" stroke-linecap="round" stroke-linejoin="round"/>
<path d="M27.9062 29.6875L49.3002 20.1803L27.9062 10.6732L6.51221 20.1803L27.9062 29.6875Z" stroke="#3D5F32" stroke-linecap="round" stroke-linejoin="round"/>
</svg>
