<svg width="20" height="20" viewBox="0 0 20 20" fill="none" xmlns="http://www.w3.org/2000/svg">
<path d="M5.82119 1C6.21471 1 6.5773 1.21343 6.76835 1.55752L8.09348 3.94453C8.26698 4.25707 8.27516 4.6351 8.11526 4.95485L6.83865 7.5081C6.83865 7.5081 7.20861 9.41011 8.75691 10.9584C10.3053 12.5067 12.2009 12.8703 12.2009 12.8703L14.7537 11.5939C15.0737 11.4339 15.452 11.4422 15.7646 11.616L18.1584 12.9469C18.5022 13.138 18.7153 13.5004 18.7153 13.8937V16.6418C18.7153 18.0414 17.4154 19.0522 16.0894 18.6047C13.3659 17.6857 9.13836 15.9361 6.45884 13.2565C3.77932 10.577 2.02957 6.34942 1.11061 3.62598C0.663184 2.29992 1.67398 1 3.07348 1H5.82119Z" fill="#3D5F32" stroke="black" stroke-opacity="0.74" stroke-width="2" stroke-linejoin="round"/>
</svg>
