<svg width="26" height="26" viewBox="0 0 26 26" fill="none" xmlns="http://www.w3.org/2000/svg">
<path d="M24.375 5.68751H17.875L17.5175 4.63126C17.384 4.22844 17.1268 3.87805 16.7825 3.63002C16.4382 3.382 16.0243 3.249 15.6 3.25001H10.4C9.97565 3.249 9.56182 3.382 9.21751 3.63002C8.87319 3.87805 8.61596 4.22844 8.4825 4.63126L8.125 5.68751H1.625C1.19402 5.68751 0.780698 5.85871 0.475951 6.16346C0.171205 6.4682 0 6.88153 0 7.31251L0 21.125C0 21.556 0.171205 21.9693 0.475951 22.2741C0.780698 22.5788 1.19402 22.75 1.625 22.75H24.375C24.806 22.75 25.2193 22.5788 25.524 22.2741C25.8288 21.9693 26 21.556 26 21.125V7.31251C26 6.88153 25.8288 6.4682 25.524 6.16346C25.2193 5.85871 24.806 5.68751 24.375 5.68751ZM23.9688 20.7188H2.03125V7.71876H9.5875L10.4 5.28126H15.6L16.4125 7.71876H23.9688V20.7188Z" fill="#383E1A"/>
<path d="M12.9999 9.75001C11.8862 9.71494 10.8041 10.1229 9.99079 10.8844C9.17746 11.646 8.6993 12.699 8.66113 13.8125C8.6993 14.9261 9.17746 15.979 9.99079 16.7406C10.8041 17.5021 11.8862 17.9101 12.9999 17.875C14.1135 17.9101 15.1956 17.5021 16.009 16.7406C16.8223 15.979 17.3005 14.9261 17.3386 13.8125C17.3005 12.699 16.8223 11.646 16.009 10.8844C15.1956 10.1229 14.1135 9.71494 12.9999 9.75001ZM12.9999 15.8438C12.4258 15.8751 11.8624 15.6798 11.4308 15.2999C10.9993 14.92 10.7341 14.3859 10.6924 13.8125C10.7341 13.2391 10.9993 12.705 11.4308 12.3251C11.8624 11.9452 12.4258 11.7499 12.9999 11.7813C13.574 11.7499 14.1374 11.9452 14.5689 12.3251C15.0005 12.705 15.2657 13.2391 15.3074 13.8125C15.2657 14.3859 15.0005 14.92 14.5689 15.2999C14.1374 15.6798 13.574 15.8751 12.9999 15.8438Z" fill="#383E1A"/>
<path d="M20.8651 11.7975C21.4664 11.7975 21.9539 11.3392 21.9539 10.7738C21.9539 10.2083 21.4664 9.75 20.8651 9.75C20.2638 9.75 19.7764 10.2083 19.7764 10.7738C19.7764 11.3392 20.2638 11.7975 20.8651 11.7975Z" fill="#383E1A"/>
</svg>
