<svg width="32" height="31" viewBox="0 0 32 31" fill="none" xmlns="http://www.w3.org/2000/svg">
<path d="M31.6595 8.37894C31.5678 8.24867 31.4461 8.14234 31.3047 8.06891C31.1633 7.99549 31.0064 7.9571 30.8471 7.957H9.62406L8.01756 2.417C7.38756 0.2355 5.89053 0 5.27653 0H0.993031C0.444 0 0 0.4445 0 0.993C0 1.5415 0.4445 1.98597 0.993 1.98597L5.27653 2.417C5.41203 2.417 5.82553 1.98597 6.10756 2.96047L9.62406 23.3384C9.74406 23.7669 10.1346 24.0629 10.58 24.0629L28.5869 23.9954C29.2361 23.9954 29.8155 23.7329 30.0348 23.3384L31.781 9.28594C31.8905 8.98144 31.845 8.64244 31.6595 8.37894ZM27.5042 22.01L11.3337 22.0775L10.1822 9.9435H29.4352L27.5042 22.01ZM23.4202 26.008C22.0392 26.008 20.9202 27.127 20.9202 28.508C20.9202 29.889 22.0392 31.008 23.4202 31.008C24.8012 31.008 25.9202 29.889 25.9202 28.508C25.9202 27.127 24.8012 26.008 23.4202 26.008ZM14.4202 26.008C13.0392 26.008 11.9202 27.127 11.9202 28.508C11.9202 29.889 13.0392 31.008 14.4202 31.008C15.8012 31.008 16.9202 29.889 16.9202 28.508C16.9202 27.127 15.8012 26.008 14.4202 26.008Z" fill="#1E1E1E"/>
</svg>
