<svg width="27" height="25" viewBox="0 0 27 25" fill="none" xmlns="http://www.w3.org/2000/svg">
<path d="M5.33334 21.3333L2.26667 24.4C1.84445 24.8222 1.36089 24.9169 0.816002 24.684C0.271113 24.4511 -0.000886717 24.0342 2.17155e-06 23.4333V2.66667C2.17155e-06 1.93333 0.261336 1.30578 0.784002 0.784C1.30667 0.262222 1.93422 0.000888889 2.66667 0H24C24.7333 0 25.3613 0.261333 25.884 0.784C26.4067 1.30667 26.6676 1.93422 26.6667 2.66667V18.6667C26.6667 19.4 26.4058 20.028 25.884 20.5507C25.3622 21.0733 24.7342 21.3342 24 21.3333H5.33334ZM4.2 18.6667H24V2.66667H2.66667V20.1667L4.2 18.6667ZM8.95067 11.616C9.20578 11.3609 9.33334 11.0444 9.33334 10.6667C9.33334 10.2889 9.20534 9.97244 8.94934 9.71733C8.69334 9.46222 8.37689 9.33422 8 9.33333C7.62311 9.33245 7.30667 9.46044 7.05067 9.71733C6.79467 9.97422 6.66667 10.2907 6.66667 10.6667C6.66667 11.0427 6.79467 11.3596 7.05067 11.6173C7.30667 11.8751 7.62311 12.0027 8 12C8.37689 11.9973 8.69378 11.8693 8.95067 11.616ZM14.284 11.616C14.5391 11.3618 14.6667 11.0453 14.6667 10.6667C14.6667 10.288 14.5387 9.97156 14.2827 9.71733C14.0267 9.46311 13.7102 9.33511 13.3333 9.33333C12.9564 9.33156 12.64 9.45956 12.384 9.71733C12.128 9.97511 12 10.2916 12 10.6667C12 11.0418 12.128 11.3587 12.384 11.6173C12.64 11.876 12.9564 12.0036 13.3333 12C13.7102 11.9964 14.0271 11.8684 14.284 11.616ZM19.6173 11.616C19.8724 11.3618 20 11.0453 20 10.6667C20 10.288 19.872 9.97156 19.616 9.71733C19.36 9.46311 19.0436 9.33511 18.6667 9.33333C18.2898 9.33156 17.9733 9.45956 17.7173 9.71733C17.4613 9.97511 17.3333 10.2916 17.3333 10.6667C17.3333 11.0418 17.4613 11.3587 17.7173 11.6173C17.9733 11.876 18.2898 12.0036 18.6667 12C19.0436 11.9964 19.3604 11.8684 19.6173 11.616Z" fill="#1E1E1E"/>
</svg>
