<svg width="22" height="18" viewBox="0 0 22 18" fill="none" xmlns="http://www.w3.org/2000/svg">
<path d="M13.8667 4.33333L15.1667 5.63333L7.8 13L6.5 11.7L13.8667 4.33333ZM2.16667 0H19.5C20.7025 0 21.6667 0.964167 21.6667 2.16667V6.5C21.092 6.5 20.5409 6.72827 20.1346 7.1346C19.7283 7.54093 19.5 8.09203 19.5 8.66667C19.5 9.2413 19.7283 9.7924 20.1346 10.1987C20.5409 10.6051 21.092 10.8333 21.6667 10.8333V15.1667C21.6667 16.3692 20.7025 17.3333 19.5 17.3333H2.16667C1.59203 17.3333 1.04093 17.1051 0.634602 16.6987C0.228273 16.2924 0 15.7413 0 15.1667V10.8333C1.2025 10.8333 2.16667 9.86917 2.16667 8.66667C2.16667 8.09203 1.93839 7.54093 1.53206 7.1346C1.12574 6.72827 0.574636 6.5 0 6.5V2.16667C0 1.59203 0.228273 1.04093 0.634602 0.634602C1.04093 0.228273 1.59203 0 2.16667 0ZM2.16667 2.16667V4.91833C2.82499 5.29793 3.37172 5.84422 3.75186 6.50222C4.132 7.16023 4.33214 7.90675 4.33214 8.66667C4.33214 9.42659 4.132 10.1731 3.75186 10.8311C3.37172 11.4891 2.82499 12.0354 2.16667 12.415V15.1667H19.5V12.415C18.8417 12.0354 18.2949 11.4891 17.9148 10.8311C17.5347 10.1731 17.3345 9.42659 17.3345 8.66667C17.3345 7.90675 17.5347 7.16023 17.9148 6.50222C18.2949 5.84422 18.8417 5.29793 19.5 4.91833V2.16667H2.16667ZM8.125 4.33333C9.02417 4.33333 9.75 5.05917 9.75 5.95833C9.75 6.8575 9.02417 7.58333 8.125 7.58333C7.22583 7.58333 6.5 6.8575 6.5 5.95833C6.5 5.05917 7.22583 4.33333 8.125 4.33333ZM13.5417 9.75C14.4408 9.75 15.1667 10.4758 15.1667 11.375C15.1667 12.2742 14.4408 13 13.5417 13C12.6425 13 11.9167 12.2742 11.9167 11.375C11.9167 10.4758 12.6425 9.75 13.5417 9.75Z" fill="black"/>
</svg>
