<svg width="42" height="42" viewBox="0 0 42 42" fill="none" xmlns="http://www.w3.org/2000/svg">
<path d="M42 31.5C42 32.7377 41.5083 33.9246 40.6332 34.7998C39.758 35.675 38.571 36.1666 37.3333 36.1666H4.66667C3.42899 36.1666 2.242 35.675 1.36683 34.7998C0.491665 33.9246 0 32.7377 0 31.5V28C0 26.7623 0.491665 25.5753 1.36683 24.7001C2.242 23.825 3.42899 23.3333 4.66667 23.3333H37.3333C38.571 23.3333 39.758 23.825 40.6332 24.7001C41.5083 25.5753 42 26.7623 42 28V31.5Z" fill="url(#paint0_linear_390_900)"/>
<path d="M22.1667 15.1667L21.0245 14H8.337C4.66667 14 3.5 16.3333 3.5 16.3333L0 23.2855V29.1667H22.1667V15.1667Z" fill="url(#paint1_linear_390_900)"/>
<path d="M10.5002 23.3333H2.3335L4.66683 18.6666C4.66683 18.6666 5.8335 16.3333 8.16683 16.3333H10.5002V23.3333Z" fill="#EDF3F8"/>
<path d="M10.5002 40.8333C13.0775 40.8333 15.1668 38.744 15.1668 36.1667C15.1668 33.5893 13.0775 31.5 10.5002 31.5C7.92283 31.5 5.8335 33.5893 5.8335 36.1667C5.8335 38.744 7.92283 40.8333 10.5002 40.8333Z" fill="#292F33"/>
<path d="M10.4998 38.5C11.7885 38.5 12.8332 37.4553 12.8332 36.1666C12.8332 34.878 11.7885 33.8333 10.4998 33.8333C9.21117 33.8333 8.1665 34.878 8.1665 36.1666C8.1665 37.4553 9.21117 38.5 10.4998 38.5Z" fill="url(#paint2_linear_390_900)"/>
<path d="M31.5002 40.8333C34.0775 40.8333 36.1668 38.744 36.1668 36.1667C36.1668 33.5893 34.0775 31.5 31.5002 31.5C28.9228 31.5 26.8335 33.5893 26.8335 36.1667C26.8335 38.744 28.9228 40.8333 31.5002 40.8333Z" fill="#292F33"/>
<path d="M31.4998 38.5C32.7885 38.5 33.8332 37.4553 33.8332 36.1666C33.8332 34.878 32.7885 33.8333 31.4998 33.8333C30.2112 33.8333 29.1665 34.878 29.1665 36.1666C29.1665 37.4553 30.2112 38.5 31.4998 38.5Z" fill="url(#paint3_linear_390_900)"/>
<path d="M37.3332 9.33331H19.8332C18.5955 9.33331 17.4085 9.82498 16.5333 10.7001C15.6582 11.5753 15.1665 12.7623 15.1665 14V29.1666H41.9998V14C41.9998 12.7623 41.5082 11.5753 40.633 10.7001C39.7578 9.82498 38.5708 9.33331 37.3332 9.33331Z" fill="url(#paint4_linear_390_900)"/>
<defs>
<linearGradient id="paint0_linear_390_900" x1="21" y1="23.3333" x2="21" y2="36.1666" gradientUnits="userSpaceOnUse">
<stop stop-color="#4F5927"/>
<stop offset="1" stop-color="#AABF54"/>
</linearGradient>
<linearGradient id="paint1_linear_390_900" x1="11.0833" y1="14" x2="11.0833" y2="29.1667" gradientUnits="userSpaceOnUse">
<stop stop-color="#A4B951"/>
<stop offset="1" stop-color="#839340"/>
</linearGradient>
<linearGradient id="paint2_linear_390_900" x1="10.4998" y1="33.8333" x2="10.4998" y2="38.5" gradientUnits="userSpaceOnUse">
<stop stop-color="#AAA879"/>
<stop offset="1" stop-color="#4F5A23"/>
</linearGradient>
<linearGradient id="paint3_linear_390_900" x1="31.4998" y1="33.8333" x2="31.4998" y2="38.5" gradientUnits="userSpaceOnUse">
<stop stop-color="#AAA879"/>
<stop offset="1" stop-color="#4F5A23"/>
</linearGradient>
<linearGradient id="paint4_linear_390_900" x1="28.5832" y1="9.33331" x2="28.5832" y2="29.1666" gradientUnits="userSpaceOnUse">
<stop stop-color="#AAA879"/>
<stop offset="1" stop-color="#4F5A23"/>
</linearGradient>
</defs>
</svg>
