<svg width="38" height="54" viewBox="0 0 38 54" fill="none" xmlns="http://www.w3.org/2000/svg">
<path d="M30.0087 28.0739L7.99151 28.0739L3.23413 30.0682V51.0085C3.23413 51.273 3.33795 51.5266 3.52274 51.7136C3.70753 51.9006 3.95817 52.0057 4.2195 52.0057H33.7807C34.042 52.0057 34.2926 51.9006 34.4774 51.7136C34.6622 51.5266 34.766 51.273 34.766 51.0085V30.0682L30.0087 28.0739ZM19.0001 48.017L9.14637 40.0398H15.0586V34.0568H22.9416V40.0398H28.8538L19.0001 48.017Z" fill="white"/>
<g clip-path="url(#clip0_938_2009)">
<path d="M17.7846 6.2234C16.1629 6.2234 14.6077 6.86759 13.4611 8.01426C12.3144 9.16092 11.6702 10.7161 11.6702 12.3378C11.6702 13.9594 12.3144 15.5146 13.4611 16.6613C14.6077 17.8079 16.1629 18.4521 17.7846 18.4521C19.4062 18.4521 20.9614 17.8079 22.1081 16.6613C23.2547 15.5146 23.8989 13.9594 23.8989 12.3378C23.8989 10.7161 23.2547 9.16092 22.1081 8.01426C20.9614 6.86759 19.4062 6.2234 17.7846 6.2234ZM26.6782 18.1742V19.7039C27.473 19.9085 28.1812 20.3265 28.7393 20.8956L30.0644 20.1297L31.1761 22.0552L29.8521 22.82C30.0686 23.599 30.0686 24.4223 29.8521 25.2013L31.1761 25.9661L30.0644 27.8916L28.7393 27.1256C28.1733 27.7028 27.4608 28.1148 26.6782 28.3174V29.8471H24.4548V28.3174C23.6722 28.1148 22.9596 27.7028 22.3937 27.1256L21.0674 27.8916L19.9557 25.9661L21.2809 25.2013C21.0644 24.4223 21.0644 23.599 21.2809 22.82L19.9557 22.0552L21.0674 20.1297L22.3937 20.8945C22.9598 20.3177 23.6723 19.9061 24.4548 19.7039V18.1742H26.6782ZM23.6199 22.9356C23.4378 23.2647 23.3422 23.6346 23.342 24.0106C23.342 24.3997 23.4431 24.7666 23.6199 25.0857L23.6599 25.1557C23.8574 25.4849 24.1369 25.7574 24.471 25.9466C24.8051 26.1358 25.1825 26.2352 25.5665 26.2352C25.9504 26.2352 26.3278 26.1358 26.662 25.9466C26.9961 25.7574 27.2755 25.4849 27.473 25.1557L27.5131 25.0857C27.6898 24.7666 27.7899 24.4008 27.7899 24.0106C27.7899 23.6215 27.6898 23.2547 27.5131 22.9356L27.4719 22.8656C27.2743 22.5366 26.9949 22.2644 26.6609 22.0754C26.3269 21.8863 25.9497 21.787 25.5659 21.787C25.1821 21.787 24.8049 21.8863 24.4709 22.0754C24.1369 22.2644 23.8575 22.5366 23.6599 22.8656L23.6199 22.9356ZM19.521 19.5638C18.5711 20.8516 18.0599 22.4104 18.0625 24.0106C18.0599 25.6109 18.5711 27.1696 19.521 28.4574H7.22339V26.234C7.22339 24.465 7.92614 22.7684 9.17705 21.5175C10.428 20.2666 12.1246 19.5638 13.8936 19.5638H19.521Z" fill="white"/>
</g>
<defs>
<clipPath id="clip0_938_2009">
<rect width="26.6809" height="26.6809" fill="white" transform="translate(5 4)"/>
</clipPath>
</defs>
</svg>
