<svg width="24" height="24" viewBox="0 0 24 24" fill="none" xmlns="http://www.w3.org/2000/svg">
<path d="M23.1064 9.38175H22.1667V9.33333H11.6667V14H18.2601C17.2982 16.7166 14.7134 18.6667 11.6667 18.6667C7.80092 18.6667 4.66667 15.5324 4.66667 11.6667C4.66667 7.80092 7.80092 4.66667 11.6667 4.66667C13.4511 4.66667 15.0745 5.33983 16.3106 6.43942L19.6105 3.1395C17.5268 1.19758 14.7397 0 11.6667 0C5.22375 0 0 5.22375 0 11.6667C0 18.1096 5.22375 23.3333 11.6667 23.3333C18.1096 23.3333 23.3333 18.1096 23.3333 11.6667C23.3333 10.8844 23.2528 10.1208 23.1064 9.38175Z" fill="#FFC107"/>
</svg>
