<svg width="24" height="24" viewBox="0 0 24 24" fill="none" xmlns="http://www.w3.org/2000/svg">
<g clip-path="url(#clip0_210_19167)">
<path fill-rule="evenodd" clip-rule="evenodd" d="M4.06058 4.51359e-05C3.47557 4.51359e-05 3.00008 0.475545 3.00008 1.06055V3.00005H1.06058C0.850796 3 0.645714 3.06217 0.471275 3.1787C0.296835 3.29523 0.160873 3.46087 0.0805874 3.65468C0.000303268 3.84849 -0.0207005 4.06175 0.0202389 4.2675C0.0611763 4.47325 0.162216 4.66223 0.310575 4.81055L2.50058 7.00055C2.82034 7.3196 3.25336 7.49917 3.70508 7.50005H5.91007L11.2051 12.795C11.4183 12.9938 11.7004 13.102 11.9919 13.0968C12.2833 13.0917 12.5614 12.9736 12.7675 12.7675C12.9736 12.5614 13.0917 12.2833 13.0968 11.9918C13.102 11.7004 12.9938 11.4183 12.7951 11.205L7.50008 5.91005V3.70505C7.50008 3.25355 7.32008 2.82005 7.00058 2.49905L4.81058 0.309045C4.71242 0.210107 4.59556 0.131697 4.46679 0.0783884C4.33803 0.0250794 4.19994 -0.00206244 4.06058 -0.00145486M20.2501 12C20.2502 10.7769 19.9784 9.56893 19.4542 8.46373C18.9301 7.35853 18.1667 6.38371 17.2194 5.60986C16.2721 4.836 15.1646 4.28248 13.9771 3.98936C12.7895 3.69623 11.5516 3.67085 10.3531 3.91505C10.0622 3.97055 9.76115 3.90912 9.51527 3.74409C9.26938 3.57905 9.09848 3.32373 9.03965 3.0335C8.98081 2.74327 9.03878 2.44154 9.20099 2.19378C9.36319 1.94602 9.61654 1.77221 9.90608 1.71005C12.1176 1.26042 14.4151 1.53528 16.4581 2.49388C18.5012 3.45247 20.181 5.0438 21.2486 7.03201C22.3163 9.02022 22.715 11.2995 22.3856 13.5321C22.0562 15.7647 21.0163 17.8317 19.4199 19.4269C17.8236 21.0221 15.7558 22.0605 13.523 22.3882C11.2902 22.716 9.01116 22.3156 7.02373 21.2465C5.0363 20.1774 3.44621 18.4964 2.48911 16.4527C1.53201 14.4089 1.25884 12.1112 1.71008 9.90005C1.76955 9.60764 1.94275 9.35085 2.19156 9.18614C2.44037 9.02144 2.74442 8.96232 3.03683 9.0218C3.32923 9.08127 3.58603 9.25447 3.75073 9.50328C3.91543 9.75209 3.97455 10.0561 3.91508 10.3485C3.80607 10.8815 3.75108 11.432 3.75008 12C3.75008 14.1881 4.61927 16.2865 6.16644 17.8337C7.71362 19.3809 9.81204 20.25 12.0001 20.25C14.1881 20.25 16.2865 19.3809 17.8337 17.8337C19.3809 16.2865 20.2501 14.1881 20.2501 12ZM12.2041 8.25605C11.9061 8.24013 11.6267 8.1065 11.4272 7.88455C11.2278 7.6626 11.1247 7.37052 11.1406 7.07255C11.1565 6.77458 11.2901 6.49513 11.5121 6.29568C11.734 6.09624 12.0261 5.99313 12.3241 6.00905C13.4762 6.07113 14.586 6.46409 15.5204 7.14083C16.4549 7.81757 17.1744 8.74939 17.5928 9.82465C18.0112 10.8999 18.1107 12.073 17.8794 13.2033C17.648 14.3337 17.0957 15.3734 16.2885 16.1978C15.4814 17.0223 14.4536 17.5965 13.3284 17.8517C12.2032 18.1069 11.0283 18.0323 9.94441 17.6368C8.86053 17.2413 7.91368 16.5417 7.2173 15.6217C6.52092 14.7018 6.10455 13.6006 6.01808 12.45C5.996 12.1525 6.09303 11.8583 6.28784 11.6323C6.48264 11.4063 6.75925 11.2669 7.05683 11.2448C7.3544 11.2227 7.64855 11.3198 7.87458 11.5146C8.10061 11.7094 8.24 11.986 8.26208 12.2835C8.31679 13.0023 8.57747 13.69 9.01292 14.2644C9.44837 14.8388 10.0401 15.2755 10.7174 15.5223C11.3946 15.769 12.1286 15.8154 12.8315 15.6558C13.5344 15.4963 14.1764 15.1375 14.6807 14.6225C15.185 14.1074 15.5301 13.458 15.6749 12.7519C15.8196 12.0458 15.7578 11.3129 15.4968 10.6411C15.2358 9.96917 14.7867 9.38675 14.2033 8.9635C13.6198 8.54025 12.9268 8.29411 12.2071 8.25455" fill="#383E1A"/>
</g>
<defs>
<clipPath id="clip0_210_19167">
<rect width="24" height="24" fill="white" transform="matrix(-1 0 0 1 24 0)"/>
</clipPath>
</defs>
</svg>
