<svg width="64" height="64" viewBox="0 0 64 64" fill="none" xmlns="http://www.w3.org/2000/svg">
<rect width="64" height="64" fill="#EDEDED"/>
<path d="M41.7779 14.2236C33.904 14.2236 31.0111 22.27 31.0111 22.27C31.0111 22.27 28.1576 14.2236 20.2298 14.2236C14.2714 14.2236 7.4792 18.9458 9.98763 29.6803C12.4961 40.4148 31.0326 53.7872 31.0326 53.7872C31.0326 53.7872 49.5009 40.4148 52.0129 29.6803C54.5214 18.9458 48.2179 14.2236 41.7779 14.2236Z" fill="#F44336"/>
<path d="M19.0153 15.025C25.1965 15.025 28.2656 21.6698 29.2575 24.3615C29.3976 24.7461 29.9331 24.7569 30.0948 24.3831L31.0004 22.2664C29.7247 18.1911 26.2171 14.2236 20.23 14.2236C17.7503 14.2236 15.1304 15.0429 13.0928 16.7715C14.8932 15.5892 17.0028 15.025 19.0153 15.025ZM41.7781 14.2236C39.877 14.2236 38.1448 14.6369 36.7936 15.4706C37.7423 15.104 38.9175 15.025 40.0818 15.025C45.9073 15.025 51.1218 19.4417 48.7679 29.6515C46.7482 38.4167 34.9464 49.0506 31.3418 53.1079C31.1118 53.3667 31.0328 53.7836 31.0328 53.7836C31.0328 53.7836 49.5011 40.4112 52.0131 29.6767C54.5215 18.9458 48.2289 14.2236 41.7781 14.2236Z" fill="#CC3333"/>
<path d="M14.1241 19.9197C15.4718 18.2378 17.8796 16.8471 19.9208 18.4499C21.0241 19.316 20.5426 21.0913 19.5543 21.8388C18.1168 22.9313 16.8661 23.5889 15.9893 25.2996C15.4646 26.3274 15.1483 27.4522 14.9866 28.5986C14.9219 29.0514 14.329 29.1628 14.1061 28.7639C12.5896 26.0758 12.1583 22.3742 14.1241 19.9197ZM35.7297 23.456C35.0972 23.456 34.6516 22.845 34.8816 22.2557C35.3093 21.1703 35.8627 20.121 36.5276 19.1866C37.5122 17.8066 39.3846 17.0016 40.5705 17.8389C41.7852 18.6942 41.6271 20.4049 40.7754 21.2314C38.9461 23.0032 36.639 23.456 35.7297 23.456Z" fill="#FF8A80"/>
</svg>
