<svg width="18" height="21" viewBox="0 0 18 21" fill="none" xmlns="http://www.w3.org/2000/svg">
<path d="M6 18H2C1.45 18 0.979333 17.8043 0.588 17.413C0.196667 17.0217 0.000666667 16.5507 0 16V2C0 1.45 0.196 0.979333 0.588 0.588C0.98 0.196667 1.45067 0.000666667 2 0H16C16.55 0 17.021 0.196 17.413 0.588C17.805 0.98 18.0007 1.45067 18 2V16C18 16.55 17.8043 17.021 17.413 17.413C17.0217 17.805 16.5507 18.0007 16 18H12L9.7 20.3C9.5 20.5 9.26667 20.6 9 20.6C8.73333 20.6 8.5 20.5 8.3 20.3L6 18ZM2 16H6.8L9 18.2L11.2 16H16V2H2V16ZM8.9 15C9.25 15 9.546 14.879 9.788 14.637C10.03 14.395 10.1507 14.0993 10.15 13.75C10.1493 13.4007 10.0283 13.1047 9.787 12.862C9.54567 12.6193 9.25 12.4987 8.9 12.5C8.55 12.5013 8.254 12.6223 8.012 12.863C7.77 13.1037 7.64933 13.3993 7.65 13.75C7.65067 14.1007 7.77167 14.3967 8.013 14.638C8.25433 14.8793 8.55 15 8.9 15ZM10.65 6C10.65 6.28333 10.5583 6.58767 10.375 6.913C10.1917 7.23833 9.88333 7.59233 9.45 7.975C9.16667 8.225 8.93767 8.46267 8.763 8.688C8.58833 8.91333 8.44233 9.14233 8.325 9.375C8.25833 9.50833 8.20833 9.64167 8.175 9.775C8.14167 9.90833 8.10833 10.0583 8.075 10.225C8.04167 10.475 8.10833 10.6917 8.275 10.875C8.44167 11.0583 8.65833 11.15 8.925 11.15C9.15833 11.15 9.36667 11.0667 9.55 10.9C9.73333 10.7333 9.85833 10.5083 9.925 10.225C9.975 9.99167 10.071 9.775 10.213 9.575C10.355 9.375 10.584 9.11667 10.9 8.8C11.4833 8.21667 11.896 7.725 12.138 7.325C12.38 6.925 12.5007 6.48333 12.5 6C12.5 5.1 12.196 4.375 11.588 3.825C10.98 3.275 10.1507 3 9.1 3C8.35 3 7.7 3.15833 7.15 3.475C6.6 3.79167 6.15833 4.23333 5.825 4.8C5.70833 5 5.70433 5.20833 5.813 5.425C5.92167 5.64167 6.09233 5.79167 6.325 5.875C6.54167 5.95833 6.75833 5.95833 6.975 5.875C7.19167 5.79167 7.36667 5.65833 7.5 5.475C7.68333 5.24167 7.90833 5.05433 8.175 4.913C8.44167 4.77167 8.75 4.70067 9.1 4.7C9.53333 4.7 9.9 4.82067 10.2 5.062C10.5 5.30333 10.65 5.616 10.65 6Z" fill="white"/>
</svg>
