<svg width="22" height="22" viewBox="0 0 22 22" fill="none" xmlns="http://www.w3.org/2000/svg">
<path fill-rule="evenodd" clip-rule="evenodd" d="M3.13605 18.1427C7.28614 22.2092 13.9696 22.1024 18.0663 17.926C22.1651 13.7485 22.1448 7.06099 17.9936 2.98901C13.8424 -1.08297 7.15677 -0.977174 3.05795 3.2003C1.90484 4.37046 1.03871 5.79201 0.527593 7.35332C0.0164722 8.91463 -0.125723 10.5732 0.112175 12.1987C0.143367 12.412 0.258027 12.6042 0.430933 12.733C0.603839 12.8618 0.820826 12.9167 1.03416 12.8855C1.24749 12.8543 1.4397 12.7396 1.56849 12.5667C1.69729 12.3938 1.75212 12.1768 1.72093 11.9635C1.51898 10.5859 1.63931 9.18029 2.07244 7.85709C2.50558 6.53389 3.23972 5.32918 4.21715 4.33767C7.69901 0.790086 13.3568 0.715729 16.8563 4.14821C20.3546 7.58178 20.3878 13.24 16.9071 16.7886C13.4273 20.334 7.77282 20.4105 4.27341 16.9824L5.08368 16.9714C5.19037 16.9699 5.29571 16.9474 5.3937 16.9052C5.49169 16.8629 5.5804 16.8018 5.65478 16.7253C5.72915 16.6488 5.78772 16.5584 5.82715 16.4593C5.86658 16.3601 5.8861 16.2542 5.88459 16.1475C5.88308 16.0408 5.86057 15.9354 5.81834 15.8375C5.77612 15.7395 5.715 15.6508 5.63849 15.5764C5.56198 15.502 5.47157 15.4434 5.37243 15.404C5.27328 15.3646 5.16734 15.3451 5.06065 15.3466L2.30273 15.3858C2.08858 15.389 1.88434 15.4766 1.73444 15.6295C1.58454 15.7825 1.50111 15.9885 1.50229 16.2027L1.5144 18.9587C1.51485 19.0654 1.5363 19.171 1.57755 19.2694C1.61879 19.3678 1.67901 19.4571 1.75477 19.5322C1.83054 19.6074 1.92036 19.6668 2.0191 19.7072C2.11785 19.7477 2.2236 19.7682 2.33029 19.7678C2.43699 19.7674 2.54256 19.7459 2.64097 19.7047C2.73938 19.6634 2.8287 19.6032 2.90383 19.5274C2.97896 19.4517 3.03844 19.3618 3.07886 19.2631C3.11928 19.1644 3.13986 19.0586 3.13941 18.9519L3.13605 18.1427ZM10.6099 15.7098C10.8254 15.7078 11.0313 15.6202 11.1822 15.4664C11.3331 15.3126 11.4167 15.1051 11.4147 14.8897L11.3767 10.8923L13.8242 8.39897C13.9011 8.32332 13.9622 8.23311 14.0039 8.1336C14.0456 8.03409 14.067 7.92728 14.067 7.81939C14.0669 7.7115 14.0454 7.6047 14.0037 7.50522C13.9619 7.40574 13.9008 7.31558 13.8238 7.23998C13.7468 7.16438 13.6555 7.10488 13.5553 7.06493C13.4551 7.02498 13.3479 7.00539 13.2401 7.0073C13.1322 7.00921 13.0258 7.03258 12.9271 7.07606C12.8283 7.11954 12.7392 7.18224 12.665 7.26052L9.74645 10.2351L9.79082 14.904C9.79287 15.1195 9.88043 15.3253 10.0342 15.4762C10.1881 15.6272 10.3955 15.7108 10.611 15.7088" fill="black"/>
</svg>
