<svg width="28" height="28" viewBox="0 0 28 28" fill="none" xmlns="http://www.w3.org/2000/svg">
<path fill-rule="evenodd" clip-rule="evenodd" d="M19.775 4.66662C19.9875 4.44658 20.1051 4.15188 20.1025 3.84598C20.0998 3.54009 19.9771 3.24747 19.7608 3.03116C19.5445 2.81485 19.2519 2.69216 18.946 2.6895C18.6401 2.68684 18.3454 2.80443 18.1253 3.01695L13.587 7.55412C13.4776 7.66347 13.3293 7.72491 13.1746 7.72491C13.0199 7.72491 12.8716 7.66347 12.7622 7.55412L9.87467 4.66662C9.76705 4.55519 9.63831 4.46631 9.49597 4.40517C9.35363 4.34402 9.20054 4.31184 9.04563 4.31049C8.89073 4.30915 8.7371 4.33866 8.59372 4.39732C8.45034 4.45599 8.32008 4.54261 8.21054 4.65216C8.101 4.7617 8.01437 4.89196 7.95571 5.03534C7.89705 5.17872 7.86753 5.33234 7.86887 5.48725C7.87022 5.64216 7.9024 5.79525 7.96355 5.93759C8.02469 6.07993 8.11357 6.20866 8.225 6.31628L10.0753 8.16662H5.83333C5.21449 8.16662 4.621 8.41245 4.18342 8.85003C3.74583 9.28762 3.5 9.88111 3.5 10.4999V22.1666C3.5 22.7855 3.74583 23.3789 4.18342 23.8165C4.621 24.2541 5.21449 24.4999 5.83333 24.4999H22.1667C22.7855 24.4999 23.379 24.2541 23.8166 23.8165C24.2542 23.3789 24.5 22.7855 24.5 22.1666V10.4999C24.5 9.88111 24.2542 9.28762 23.8166 8.85003C23.379 8.41245 22.7855 8.16662 22.1667 8.16662H16.275L19.775 4.66662ZM11.0402 13.9066C11.0612 13.7166 11.1267 13.5342 11.2313 13.3741C11.3359 13.214 11.4766 13.0808 11.6422 12.9852C11.8078 12.8896 11.9935 12.8343 12.1844 12.8237C12.3753 12.8131 12.566 12.8476 12.7412 12.9243C13.1553 13.1039 13.9405 13.4691 14.9205 14.0349C15.9005 14.6008 16.611 15.0989 16.9738 15.3673C17.1277 15.4806 17.2528 15.6285 17.339 15.799C17.4252 15.9695 17.4701 16.1579 17.4701 16.349C17.4701 16.5401 17.4252 16.7285 17.339 16.8991C17.2528 17.0696 17.1277 17.2175 16.9738 17.3308C16.6122 17.5979 15.9075 18.0914 14.9205 18.6608C13.9323 19.2324 13.153 19.5941 12.7412 19.7738C12.566 19.8505 12.3753 19.885 12.1844 19.8744C11.9935 19.8638 11.8078 19.8085 11.6422 19.7129C11.4766 19.6172 11.3359 19.484 11.2313 19.324C11.1267 19.1639 11.0612 18.9815 11.0402 18.7915C10.9528 17.9801 10.9104 17.1645 10.913 16.3484C10.913 15.2214 10.99 14.3558 11.0413 13.9078" fill="#383E1A"/>
</svg>
