<svg width="21" height="13" viewBox="0 0 21 13" fill="none" xmlns="http://www.w3.org/2000/svg">
<path d="M3.97903 8.85022L0.563031 11.9967C0.42692 11.7556 0.341365 11.4367 0.341365 11.0945V0.939828C0.341365 0.77105 0.326587 0.849995 0.451031 0.964328L6.53248 6.49783M13.1988 6.82838L19.7625 0.58905V11.0945C19.7625 11.4289 19.6847 11.7362 19.5486 11.9773L14.7781 7.60927" stroke="black" stroke-width="0.666667" stroke-linecap="round" stroke-linejoin="round"/>
<path d="M6.53271 6.49783L8.27105 8.10394C8.36438 8.1895 8.45771 8.26339 8.55105 8.32561C9.49605 9.02561 10.5966 9.02561 11.5377 8.32172C11.6272 8.2595 11.7205 8.18172 11.806 8.10394L13.556 6.49005" stroke="black" stroke-width="0.666667" stroke-linecap="round" stroke-linejoin="round"/>
<path d="M14.7477 7.58124L19.5485 11.9772C19.3852 12.2767 19.1324 12.4711 18.8524 12.4711H1.25132C0.979099 12.4711 0.730211 12.2883 0.562988 11.9967L5.25999 7.6699" stroke="black" stroke-width="0.666667" stroke-linecap="round" stroke-linejoin="round"/>
<path d="M15.4174 0.333915H19.0963C20.1144 0.312915 19.6272 0.848026 19.6427 0.875249L13.5547 6.49003L11.8047 8.10392C11.7191 8.18169 11.6258 8.25947 11.5363 8.32169C10.5952 9.02558 9.49466 9.02558 8.54966 8.32558C8.45633 8.26336 8.36299 8.18947 8.26966 8.10392L6.53133 6.4978L0.340217 0.785026C0.340994 0.447471 0.581328 0.333915 1.02077 0.333915H4.31855M1.30194 12.4711C1.30194 12.4711 0.231717 12.5256 0.341383 10.727" stroke="black" stroke-width="0.666667" stroke-linecap="round" stroke-linejoin="round"/>
</svg>
