<svg width="23" height="25" viewBox="0 0 23 25" fill="none" xmlns="http://www.w3.org/2000/svg">
<path d="M16.2916 7.29171V11.4584C16.2916 12.8397 15.7868 14.1645 14.8881 15.1412C13.9895 16.118 12.7707 16.6667 11.4999 16.6667C10.2291 16.6667 9.01031 16.118 8.1117 15.1412C7.21309 14.1645 6.70825 12.8397 6.70825 11.4584V7.29171C6.70825 5.91037 7.21309 4.58561 8.1117 3.60886C9.01031 2.63211 10.2291 2.08337 11.4999 2.08337C12.7707 2.08337 13.9895 2.63211 14.8881 3.60886C15.7868 4.58561 16.2916 5.91037 16.2916 7.29171Z" stroke="#383E1A" stroke-width="1.5"/>
<path d="M16.2916 7.29175H13.4166M16.2916 11.4584H13.4166M19.1666 11.4584C19.1666 13.6686 18.3588 15.7882 16.9211 17.351C15.4833 18.9138 13.5332 19.7917 11.4999 19.7917M11.4999 19.7917C9.46659 19.7917 7.51655 18.9138 6.07877 17.351C4.64099 15.7882 3.83325 13.6686 3.83325 11.4584M11.4999 19.7917V22.9167M11.4999 22.9167H14.3749M11.4999 22.9167H8.62492" stroke="#383E1A" stroke-width="1.5" stroke-linecap="round"/>
</svg>
