<svg width="41" height="34" viewBox="0 0 41 34" fill="none" xmlns="http://www.w3.org/2000/svg">
<path d="M26.1037 10.5C27.4961 10.5 28.8315 9.94689 29.816 8.96232C30.8006 7.97776 31.3537 6.6424 31.3537 5.25001C31.3537 3.85762 30.8006 2.52226 29.816 1.5377C28.8315 0.553131 27.4961 0 26.1037 0C24.7113 0 23.376 0.553131 22.3914 1.5377C21.4069 2.52226 20.8538 3.85762 20.8538 5.25001C20.8538 6.6424 21.4069 7.97776 22.3914 8.96232C23.376 9.94689 24.7113 10.5 26.1037 10.5ZM38.3782 8.11231C30.8602 13.4778 27.3973 12.5391 24.0037 12.432C21.6559 12.3123 20.8538 13.0578 20.8538 14.7L20.8558 27.3C20.8558 37.8001 38.5399 34.503 31.7023 16.9071C35.2114 14.8932 38.1619 11.7957 39.8419 9.74191C40.705 8.4651 39.7831 7.12741 38.3782 8.11231Z" fill="url(#paint0_linear_390_915)"/>
<path d="M10.3603 1.5377C11.3448 0.553134 12.6802 1.09239e-05 14.0726 1.09239e-05C15.465 1.09239e-05 16.8003 0.553134 17.7849 1.5377C18.7695 2.52227 19.3226 3.85762 19.3226 5.25001C19.3226 6.6424 18.7695 7.97776 17.7849 8.96232C16.8003 9.94689 15.465 10.5 14.0726 10.5C12.6802 10.5 11.3448 9.94689 10.3603 8.96232C9.3757 7.97776 8.82258 6.6424 8.82258 5.25001C8.82258 3.85762 9.3757 2.52227 10.3603 1.5377Z" fill="url(#paint1_linear_390_915)"/>
<path d="M1.79808 8.11231C9.31608 13.4778 12.779 12.5391 16.1726 12.432C18.5204 12.3123 19.3226 13.0578 19.3226 14.6979L19.3205 27.2979C19.3205 37.7979 1.63638 34.5009 8.47398 16.905C4.96488 14.8911 2.01438 11.7957 0.334377 9.73981C-0.528723 8.46511 0.393176 7.12741 1.79808 8.11231Z" fill="url(#paint2_linear_390_915)"/>
<defs>
<linearGradient id="paint0_linear_390_915" x1="40.1763" y1="16.6329" x2="0" y2="16.6329" gradientUnits="userSpaceOnUse">
<stop offset="0.100962" stop-color="#C0D7BA"/>
<stop offset="0.913462" stop-color="#757628"/>
</linearGradient>
<linearGradient id="paint1_linear_390_915" x1="40.1763" y1="16.6329" x2="0" y2="16.6329" gradientUnits="userSpaceOnUse">
<stop offset="0.100962" stop-color="#C0D7BA"/>
<stop offset="0.913462" stop-color="#757628"/>
</linearGradient>
<linearGradient id="paint2_linear_390_915" x1="40.1763" y1="16.6329" x2="0" y2="16.6329" gradientUnits="userSpaceOnUse">
<stop offset="0.100962" stop-color="#C0D7BA"/>
<stop offset="0.913462" stop-color="#757628"/>
</linearGradient>
</defs>
</svg>
