<svg width="41" height="41" viewBox="0 0 41 41" fill="none" xmlns="http://www.w3.org/2000/svg">
<g clip-path="url(#clip0_377_867)">
<path d="M15.375 12.8125C15.375 11.4533 15.915 10.1497 16.8761 9.18858C17.8372 8.22745 19.1408 7.6875 20.5 7.6875C21.8592 7.6875 23.1628 8.22745 24.1239 9.18858C25.085 10.1497 25.625 11.4533 25.625 12.8125C25.625 14.1717 25.085 15.4753 24.1239 16.4364C23.1628 17.3975 21.8592 17.9375 20.5 17.9375C19.1408 17.9375 17.8372 17.3975 16.8761 16.4364C15.915 15.4753 15.375 14.1717 15.375 12.8125ZM14.0938 20.5H26.9062C27.9257 20.5 28.9033 20.905 29.6242 21.6258C30.345 22.3467 30.75 23.3243 30.75 24.3438C30.75 27.2035 29.5738 29.4944 27.6443 31.0447C25.7454 32.5694 23.1983 33.3125 20.5 33.3125C17.8017 33.3125 15.2546 32.5694 13.3558 31.0447C11.4288 29.4944 10.25 27.2035 10.25 24.3438C10.25 23.3243 10.655 22.3467 11.3758 21.6258C12.0967 20.905 13.0743 20.5 14.0938 20.5ZM20.5 0C15.0631 0 9.84881 2.15982 6.00431 6.00431C2.15982 9.84881 0 15.0631 0 20.5C0 25.9369 2.15982 31.1512 6.00431 34.9957C9.84881 38.8402 15.0631 41 20.5 41C25.9369 41 31.1512 38.8402 34.9957 34.9957C38.8402 31.1512 41 25.9369 41 20.5C41 15.0631 38.8402 9.84881 34.9957 6.00431C31.1512 2.15982 25.9369 0 20.5 0ZM2.5625 20.5C2.5625 15.7427 4.45234 11.1802 7.81627 7.81627C11.1802 4.45234 15.7427 2.5625 20.5 2.5625C25.2573 2.5625 29.8198 4.45234 33.1837 7.81627C36.5477 11.1802 38.4375 15.7427 38.4375 20.5C38.4375 25.2573 36.5477 29.8198 33.1837 33.1837C29.8198 36.5477 25.2573 38.4375 20.5 38.4375C15.7427 38.4375 11.1802 36.5477 7.81627 33.1837C4.45234 29.8198 2.5625 25.2573 2.5625 20.5Z" fill="black"/>
</g>
<defs>
<clipPath id="clip0_377_867">
<rect width="41" height="41" fill="white"/>
</clipPath>
</defs>
</svg>
