<svg width="70" height="70" viewBox="0 0 70 70" fill="none" xmlns="http://www.w3.org/2000/svg">
<path fill-rule="evenodd" clip-rule="evenodd" d="M34.5834 6.91667C29.7443 6.91578 24.9897 8.1841 20.794 10.595C16.5983 13.006 13.1084 16.4752 10.6725 20.6565C8.23663 24.8377 6.94002 29.5847 6.91209 34.4237C6.88417 39.2626 8.12591 44.0243 10.5134 48.2334C12.1271 46.1362 14.2014 44.4381 16.5761 43.2706C18.9508 42.103 21.5622 41.4972 24.2084 41.5H44.9584C47.6046 41.4972 50.2159 42.103 52.5906 43.2706C54.9653 44.4381 57.0397 46.1362 58.6534 48.2334C61.0408 44.0243 62.2826 39.2626 62.2546 34.4237C62.2267 29.5847 60.9301 24.8377 58.4942 20.6565C56.0583 16.4752 52.5684 13.006 48.3727 10.595C44.1771 8.1841 39.4224 6.91578 34.5834 6.91667ZM62.0529 55.5962C62.4864 55.0313 62.9013 54.4526 63.2979 53.8601C67.1319 48.1631 69.1757 41.4503 69.1667 34.5833C69.1667 15.483 53.6837 0 34.5834 0C15.483 0 3.54668e-05 15.483 3.54668e-05 34.5833C-0.0108629 42.1805 2.49017 49.5681 7.11383 55.5962L7.09654 55.6584L8.32424 57.0867C11.5678 60.8788 15.595 63.9225 20.1283 66.008C24.6617 68.0934 29.5933 69.1711 34.5834 69.1667C35.3304 69.1667 36.0728 69.1436 36.8105 69.0975C43.0507 68.704 49.0658 66.6177 54.2094 63.0627C56.6694 61.3657 58.899 59.3569 60.8425 57.0867L62.0702 55.6584L62.0529 55.5962ZM34.5834 13.8333C31.8317 13.8333 29.1928 14.9264 27.2471 16.8721C25.3014 18.8178 24.2084 21.4567 24.2084 24.2083C24.2084 26.96 25.3014 29.5989 27.2471 31.5446C29.1928 33.4903 31.8317 34.5833 34.5834 34.5833C37.335 34.5833 39.9739 33.4903 41.9196 31.5446C43.8653 29.5989 44.9584 26.96 44.9584 24.2083C44.9584 21.4567 43.8653 18.8178 41.9196 16.8721C39.9739 14.9264 37.335 13.8333 34.5834 13.8333Z" fill="#E6E6E6"/>
</svg>
