<svg width="22" height="22" viewBox="0 0 22 22" fill="none" xmlns="http://www.w3.org/2000/svg">
<rect width="22" height="22" fill="white"/>
<path fill-rule="evenodd" clip-rule="evenodd" d="M15.1476 1.83337H15.2099C16.0203 1.83337 16.6738 1.83337 17.1991 1.88379C17.7418 1.93512 18.2148 2.04421 18.6392 2.30454C19.07 2.56854 19.4312 2.92971 19.6952 3.36054C19.9555 3.78496 20.0646 4.25796 20.1168 4.79971C20.1663 5.32587 20.1663 5.98037 20.1663 6.78979V6.85396C20.1663 7.38562 20.1663 7.82929 20.1324 8.19046C20.0958 8.56812 20.0188 8.91921 19.8208 9.24187C19.6283 9.55721 19.3624 9.82212 19.0471 10.0155C18.7244 10.2135 18.3724 10.2905 17.9957 10.3272C17.6345 10.3611 17.1899 10.3611 16.6573 10.3611H15.6453C14.879 10.3611 14.2401 10.3611 13.7332 10.2933C13.1978 10.2209 12.7148 10.0632 12.3261 9.67454C11.9374 9.28587 11.7798 8.80371 11.7073 8.26746C11.6395 7.76054 11.6395 7.12162 11.6395 6.35529V5.34146C11.6395 4.80979 11.6395 4.36521 11.6734 4.00404C11.7101 3.62729 11.7871 3.27529 11.9851 2.95354C12.1776 2.63729 12.4434 2.37237 12.7588 2.17896C13.0814 1.98096 13.4325 1.90396 13.8102 1.86729C14.1704 1.83337 14.615 1.83337 15.1476 1.83337ZM15.9029 7.16287C15.4629 7.16287 15.2429 7.16287 15.088 7.05287C15.0339 7.01347 14.9862 6.96584 14.9468 6.91171C14.8368 6.75587 14.8368 6.53587 14.8368 6.09679C14.8368 5.65771 14.8368 5.43771 14.9468 5.28279C14.9862 5.22833 15.0338 5.18039 15.088 5.14071C15.2438 5.03071 15.4638 5.03071 15.9029 5.03071C16.342 5.03071 16.562 5.03071 16.7169 5.14071C16.7719 5.18043 16.8193 5.22779 16.859 5.28279C16.969 5.43771 16.969 5.65771 16.969 6.09679C16.969 6.53587 16.969 6.75679 16.859 6.91171C16.8193 6.96591 16.7714 7.01355 16.7169 7.05287C16.562 7.16287 16.342 7.16287 15.9029 7.16287ZM9.23967 2.17896C8.91884 1.98096 8.56684 1.90396 8.18917 1.86729C7.82801 1.83337 7.38434 1.83337 6.85176 1.83337H6.78942C5.97909 1.83337 5.32551 1.83337 4.80026 1.88379C4.25759 1.93512 3.78459 2.04421 3.36017 2.30454C2.92934 2.56854 2.56817 2.92971 2.30417 3.36054C2.04384 3.78496 1.93476 4.25796 1.88251 4.79971C1.83301 5.32587 1.83301 5.98037 1.83301 6.78979V6.85396C1.83301 7.38562 1.83301 7.82929 1.86692 8.19046C1.90359 8.56812 1.98059 8.91921 2.17859 9.24187C2.37109 9.55721 2.63692 9.82212 2.95317 10.0155C3.27492 10.2135 3.62692 10.2905 4.00367 10.3272C4.36484 10.3611 4.80851 10.3611 5.34201 10.3611H6.35401C7.12034 10.3611 7.75926 10.3611 8.26617 10.2933C8.80151 10.2209 9.28459 10.0632 9.67326 9.67454C10.0619 9.28587 10.2196 8.80371 10.292 8.26746C10.3598 7.76054 10.3598 7.12162 10.3598 6.35529V5.34146C10.3598 4.80979 10.3598 4.36521 10.3259 4.00404C10.2893 3.62729 10.2123 3.27529 10.0143 2.95354C9.82105 2.63796 9.55594 2.37254 9.24059 2.17896M5.28334 7.05287C5.43826 7.16287 5.65826 7.16287 6.09734 7.16287C6.53642 7.16287 6.75734 7.16287 6.91226 7.05287C6.96639 7.01347 7.01402 6.96584 7.05342 6.91171C7.16342 6.75587 7.16342 6.53587 7.16342 6.09679C7.16342 5.65771 7.16342 5.43771 7.05342 5.28279C7.0141 5.22833 6.96646 5.18039 6.91226 5.14071C6.75642 5.03071 6.53642 5.03071 6.09734 5.03071C5.65826 5.03071 5.43826 5.03071 5.28334 5.14071C5.22881 5.18031 5.18086 5.22826 5.14126 5.28279C5.03126 5.43771 5.03126 5.65771 5.03126 6.09679C5.03126 6.53587 5.03126 6.75679 5.14126 6.91171C5.18094 6.96591 5.22888 7.01355 5.28334 7.05287ZM8.26617 11.7077C8.80151 11.7801 9.28459 11.9378 9.67326 12.3265C10.0619 12.7151 10.2196 13.1973 10.292 13.7335C10.3598 14.2405 10.3598 14.8794 10.3598 15.6457V16.6586C10.3598 17.1903 10.3598 17.6349 10.3259 17.996C10.2893 18.3728 10.2123 18.7248 10.0143 19.0465C9.82176 19.3628 9.55592 19.6277 9.24059 19.8211C8.91792 20.0191 8.56684 20.0961 8.18917 20.1328C7.82801 20.1667 7.38434 20.1667 6.85176 20.1667H6.78942C5.97909 20.1667 5.32551 20.1667 4.80026 20.1163C4.25759 20.065 3.78459 19.9559 3.36017 19.6955C2.93001 19.4315 2.56821 19.0697 2.30417 18.6395C2.04384 18.2151 1.93476 17.7421 1.88251 17.2004C1.83301 16.6742 1.83301 16.0206 1.83301 15.2112V15.147C1.83301 14.6154 1.83301 14.1708 1.86692 13.8105C1.90359 13.4329 1.98059 13.0818 2.17859 12.7591C2.37109 12.4438 2.63692 12.1789 2.95317 11.9855C3.27492 11.7875 3.62692 11.7105 4.00367 11.6738C4.36484 11.6399 4.80851 11.6399 5.34201 11.6399H6.35401C7.12034 11.6399 7.75926 11.6399 8.26617 11.7077ZM6.09642 16.9694C5.65642 16.9694 5.43734 16.9694 5.28242 16.8594C5.2279 16.8198 5.17995 16.7718 5.14034 16.7173C5.03034 16.5624 5.03034 16.3424 5.03034 15.9033C5.03034 15.4642 5.03034 15.2433 5.14034 15.0884C5.18002 15.0342 5.22797 14.9865 5.28242 14.9472C5.43734 14.8372 5.65734 14.8372 6.09642 14.8372C6.53551 14.8372 6.75642 14.8372 6.91134 14.9472C6.96634 14.9869 7.0134 15.034 7.05251 15.0884C7.16251 15.2442 7.16251 15.4642 7.16251 15.9033C7.16251 16.3424 7.16251 16.5624 7.05251 16.7173C7.01318 16.7717 6.96554 16.8197 6.91134 16.8594C6.75551 16.9694 6.53551 16.9694 6.09642 16.9694Z" fill="#191917"/>
<path d="M11.6401 15.2314V15.2635H12.9189C12.9189 14.6511 12.9189 14.2405 12.9519 13.927C12.9821 13.6245 13.0371 13.4851 13.0985 13.3926C13.1767 13.2767 13.2763 13.1769 13.3919 13.0983C13.4854 13.0369 13.6247 12.9819 13.9272 12.9516C14.2407 12.9196 14.6514 12.9186 15.2637 12.9186H16.9687V11.6399H15.2316C14.6605 11.6399 14.1839 11.6399 13.7979 11.6784C13.3946 11.7196 13.0197 11.8095 12.6824 12.035C12.4257 12.2055 12.2057 12.4255 12.0352 12.6821C11.8097 13.0195 11.7199 13.3944 11.6786 13.7977C11.6401 14.1827 11.6401 14.6594 11.6401 15.2314ZM20.1669 16.9905V16.9694H18.8882C18.8882 17.3755 18.8882 17.6477 18.8735 17.8586C18.8589 18.0639 18.8341 18.1638 18.8066 18.2298C18.7532 18.3594 18.6746 18.4771 18.5755 18.5762C18.4764 18.6753 18.3587 18.7539 18.2291 18.8073C18.1649 18.8339 18.0641 18.8586 17.8588 18.8733C17.6479 18.8871 17.3757 18.888 16.9696 18.888H15.2646V20.1667H16.9907C17.3702 20.1667 17.6864 20.1667 17.9459 20.1484C18.2109 20.1383 18.4724 20.0841 18.7195 19.988C19.2938 19.7498 19.75 19.2935 19.9882 18.7193C20.0909 18.4718 20.1312 18.2161 20.1495 17.9456C20.1669 17.6862 20.1669 17.37 20.1669 16.9905ZM12.9189 19.5269C12.9221 19.6129 12.908 19.6987 12.8773 19.7791C12.8467 19.8595 12.8001 19.9329 12.7404 19.9949C12.6807 20.0569 12.6091 20.1062 12.5299 20.1399C12.4507 20.1736 12.3655 20.1909 12.2795 20.1909C12.1934 20.1909 12.1082 20.1736 12.029 20.1399C11.9498 20.1062 11.8783 20.0569 11.8186 19.9949C11.7589 19.9329 11.7123 19.8595 11.6816 19.7791C11.651 19.6987 11.6368 19.6129 11.6401 19.5269V16.9694H12.9189V19.5269ZM19.5271 11.6399C19.3579 11.6406 19.1958 11.7082 19.0761 11.8278C18.9565 11.9475 18.8889 12.1096 18.8882 12.2788V15.2635H20.1669V12.2788C20.1662 12.1094 20.0985 11.9472 19.9787 11.8275C19.8588 11.7078 19.6965 11.6404 19.5271 11.6399ZM14.7366 15.2323C14.6669 15.401 14.6669 15.6146 14.6669 16.0417C14.6669 16.4689 14.6669 16.6825 14.7366 16.8511C14.8298 17.0753 15.0082 17.2533 15.2325 17.3461C15.4012 17.4167 15.6148 17.4167 16.0419 17.4167C16.4691 17.4167 16.6827 17.4167 16.8514 17.3471C17.0755 17.2538 17.2535 17.0755 17.3464 16.8511C17.4169 16.6825 17.4169 16.4689 17.4169 16.0417C17.4169 15.6146 17.4169 15.401 17.3473 15.2323C17.254 15.0081 17.0757 14.8301 16.8514 14.7373C16.6827 14.6667 16.4691 14.6667 16.0419 14.6667C15.6148 14.6667 15.4012 14.6667 15.2325 14.7364C15.0084 14.8296 14.8294 15.008 14.7366 15.2323Z" fill="#191917"/>
</svg>
