<?xml version="1.0" encoding="utf-8"?>
<svg width="38" height="38" viewBox="3.343 4.336 31.38 28.799" fill="none" xmlns="http://www.w3.org/2000/svg" xmlns:bx="https://boxy-svg.com" preserveAspectRatio="none"><defs><bx:export><bx:file format="svg" path="Adsız.svg"/></bx:export></defs><path d="M22.9798 5.42053H15.0679C12.4983 5.42053 10.4153 7.50358 10.4153 10.0732V27.4035C10.4153 29.9731 12.4983 32.0562 15.0679 32.0562H22.9798C25.5494 32.0562 27.6324 29.9731 27.6324 27.4035V10.0732C27.6324 7.50358 25.5494 5.42053 22.9798 5.42053Z" stroke="black" stroke-width="2" stroke-linecap="round" stroke-linejoin="round"/><path d="M10.6606 8.59198L7.87081 9.03769C5.61377 9.39631 4.06527 11.5314 4.4326 13.7877L6.44502 26.4544C6.61409 27.5344 7.2042 28.5034 8.08614 29.1492C8.96809 29.7951 10.07 30.0653 11.1507 29.9005M27.3878 8.59198L30.1784 9.03769C32.4354 9.39631 33.9839 11.5314 33.6166 13.7877L31.6042 26.4544C31.4351 27.5344 30.845 28.5034 29.9631 29.1492C29.0811 29.7951 27.9792 30.0653 26.8985 29.9005M22.7549 17.8759L17.3399 14.592C17.2102 14.5134 17.062 14.4706 16.9103 14.4682C16.7586 14.4658 16.6091 14.5037 16.4769 14.5782C16.3448 14.6527 16.2348 14.7609 16.1583 14.8919C16.0818 15.0229 16.0415 15.1718 16.0416 15.3235V21.8896C16.0416 22.5562 16.7699 22.9663 17.3399 22.6211L22.7549 19.3381C22.8808 19.2619 22.9849 19.1546 23.0571 19.0264C23.1293 18.8983 23.1673 18.7537 23.1673 18.6066C23.1673 18.4595 23.1293 18.3148 23.0571 18.1867C22.9849 18.0586 22.8808 17.952 22.7549 17.8759Z" stroke="black" stroke-width="2" stroke-linecap="round" stroke-linejoin="round"/></svg>