<svg width="18" height="20" viewBox="0 0 18 20" fill="none" xmlns="http://www.w3.org/2000/svg">
<path d="M12.3915 2.59521L12.8223 3.6269L13.8413 4.06306L12.8223 4.49922L12.3915 5.53091L11.9607 4.49922L10.9417 4.06306L11.9607 3.6269L12.3915 2.59521Z" stroke="#F3F5E7" stroke-width="2"/>
<path d="M11.6067 13.7542L16 18.2022M13.4127 9.72471C13.3148 11.2455 12.6727 12.6781 11.6067 13.7542C10.8965 14.4731 10.0248 15.007 9.06626 15.3102C8.10769 15.6133 7.09082 15.6768 6.10275 15.495C5.11467 15.3133 4.18483 14.8918 3.39286 14.2666C2.60089 13.6414 1.9704 12.8311 1.55539 11.9053C1.14038 10.9794 0.953207 9.96549 1.00991 8.95036C1.06662 7.93523 1.36552 6.94914 1.88099 6.07655C2.39647 5.20396 3.11318 4.47088 3.96972 3.94008C4.82626 3.40929 5.79712 3.0966 6.79914 3.02881" stroke="#F3F5E7" stroke-width="2" stroke-linecap="square"/>
</svg>
