<svg width="14" height="16" viewBox="0 0 14 16" fill="none" xmlns="http://www.w3.org/2000/svg">
<path d="M9.5 2.56812L9.64857 2.91954L10 3.06812L9.64857 3.21669L9.5 3.56812L9.35143 3.21669L9 3.06812L9.35143 2.91954L9.5 2.56812Z" stroke="#7A9443" stroke-width="2"/>
<path d="M8.77823 11.0504L12 14.5681M10.1027 7.86364C10.0308 9.06641 9.55998 10.1994 8.77823 11.0504C8.25745 11.6189 7.6182 12.0412 6.91525 12.2809C6.21231 12.5207 5.4666 12.5709 4.74201 12.4272C4.01742 12.2834 3.33554 11.9501 2.75476 11.4556C2.17399 10.9612 1.71163 10.3204 1.40729 9.58817C1.10294 8.85593 0.965685 8.05406 1.00727 7.25124C1.04886 6.44841 1.26804 5.66855 1.64606 4.97846C2.02408 4.28836 2.54966 3.70859 3.17779 3.28881C3.80593 2.86902 4.51789 2.62173 5.2527 2.56812" stroke="#7A9443" stroke-width="2" stroke-linecap="square"/>
</svg>
