<svg width="46" height="46" viewBox="0 0 46 46" fill="none" xmlns="http://www.w3.org/2000/svg">
<g opacity="0.57" clip-path="url(#clip0_379_890)">
<path d="M31.625 18.6875C31.625 20.3865 31.2904 22.0688 30.6402 23.6385C29.99 25.2081 29.0371 26.6343 27.8357 27.8357C26.6343 29.0371 25.2081 29.99 23.6385 30.6402C22.0688 31.2904 20.3865 31.625 18.6875 31.625C16.9885 31.625 15.3062 31.2904 13.7365 30.6402C12.1669 29.99 10.7407 29.0371 9.53931 27.8357C8.33795 26.6343 7.38498 25.2081 6.73481 23.6385C6.08464 22.0688 5.75 20.3865 5.75 18.6875C5.75 15.2563 7.11305 11.9656 9.53931 9.53931C11.9656 7.11305 15.2563 5.75 18.6875 5.75C22.1187 5.75 25.4094 7.11305 27.8357 9.53931C30.2619 11.9656 31.625 15.2563 31.625 18.6875Z" fill="url(#paint0_linear_379_890)"/>
<path d="M28.2411 31.2886C25.0482 33.7092 21.0554 34.8275 17.0696 34.4175C13.0839 34.0074 9.40242 32.0995 6.76932 29.0794C4.13622 26.0592 2.74782 22.1521 2.88473 18.1477C3.02164 14.1432 4.67365 10.3401 7.50687 7.50687C10.3401 4.67365 14.1432 3.02164 18.1477 2.88473C22.1521 2.74782 26.0592 4.13622 29.0794 6.76932C32.0995 9.40242 34.0074 13.0839 34.4175 17.0696C34.8275 21.0554 33.7092 25.0482 31.2886 28.2411L39.6174 36.5699C39.8293 36.7673 39.9992 37.0054 40.1171 37.2699C40.2349 37.5344 40.2983 37.8199 40.3034 38.1094C40.3085 38.399 40.2552 38.6865 40.1468 38.955C40.0383 39.2235 39.8769 39.4674 39.6722 39.6722C39.4674 39.8769 39.2235 40.0383 38.955 40.1468C38.6865 40.2552 38.399 40.3085 38.1094 40.3034C37.8199 40.2983 37.5344 40.2349 37.2699 40.1171C37.0054 39.9992 36.7673 39.8293 36.5699 39.6174L28.2411 31.2886ZM30.1874 18.6874C30.1874 15.6374 28.9758 12.7124 26.8192 10.5557C24.6625 8.39904 21.7374 7.18743 18.6874 7.18743C15.6374 7.18743 12.7124 8.39904 10.5557 10.5557C8.39904 12.7124 7.18743 15.6374 7.18743 18.6874C7.18743 21.7374 8.39904 24.6625 10.5557 26.8192C12.7124 28.9758 15.6374 30.1874 18.6874 30.1874C21.7374 30.1874 24.6625 28.9758 26.8192 26.8192C28.9758 24.6625 30.1874 21.7374 30.1874 18.6874Z" fill="url(#paint1_linear_379_890)"/>
<path d="M45.3761 23.6123L43.1767 22.8993C42.5074 22.6767 41.8991 22.3012 41.4001 21.8027C40.9011 21.3042 40.525 20.6963 40.3017 20.0272L39.5887 17.8307C39.5292 17.6609 39.4184 17.5137 39.2716 17.4096C39.1248 17.3055 38.9493 17.2496 38.7693 17.2496C38.5894 17.2496 38.4139 17.3055 38.2671 17.4096C38.1203 17.5137 38.0095 17.6609 37.95 17.8307L37.2312 20.0272C37.0128 20.6911 36.6442 21.2956 36.154 21.7938C35.6639 22.2919 35.0654 22.6702 34.4051 22.8993L32.2057 23.6123C32.0372 23.6731 31.8915 23.7845 31.7886 23.9311C31.6856 24.0777 31.6304 24.2525 31.6304 24.4317C31.6304 24.6109 31.6856 24.7857 31.7886 24.9323C31.8915 25.0789 32.0372 25.1902 32.2057 25.2511L34.4051 25.9669C35.0753 26.1904 35.6842 26.5672 36.1833 27.0673C36.6824 27.5674 37.0579 28.177 37.2801 28.8477L37.9931 31.0442C38.0526 31.214 38.1634 31.3611 38.3102 31.4652C38.457 31.5693 38.6325 31.6252 38.8125 31.6252C38.9924 31.6252 39.1679 31.5693 39.3147 31.4652C39.4615 31.3611 39.5723 31.214 39.6318 31.0442L40.3477 28.8477C40.5708 28.1789 40.9464 27.5712 41.4449 27.0727C41.9434 26.5742 42.5511 26.1986 43.2198 25.9756L45.4192 25.2626C45.5877 25.2017 45.7334 25.0904 45.8364 24.9438C45.9393 24.7972 45.9946 24.6224 45.9946 24.4432C45.9946 24.264 45.9393 24.0892 45.8364 23.9426C45.7334 23.796 45.5877 23.6846 45.4192 23.6238L45.3761 23.6123Z" fill="url(#paint2_radial_379_890)"/>
<path d="M31.2743 0.810737L32.2748 3.88986C32.5851 4.82641 33.1102 5.67739 33.8081 6.37478C34.506 7.07217 35.3573 7.59663 36.2941 7.90624L39.3761 8.90674L39.4365 8.92399C39.674 9.00759 39.8796 9.16284 40.0251 9.36831C40.1706 9.57378 40.2488 9.81934 40.2488 10.0711C40.2488 10.3229 40.1706 10.5684 40.0251 10.7739C39.8796 10.9794 39.674 11.1346 39.4365 11.2182L36.3573 12.2187C35.42 12.528 34.5681 13.0522 33.8697 13.7497C33.1713 14.4471 32.6458 15.2983 32.3352 16.2351L31.3347 19.3114C31.2511 19.5488 31.0959 19.7545 30.8904 19.9C30.6849 20.0455 30.4394 20.1237 30.1876 20.1237C29.9358 20.1237 29.6903 20.0455 29.4848 19.9C29.2793 19.7545 29.1241 19.5488 29.0405 19.3114L28.04 16.2351C27.7317 15.2951 27.2072 14.4404 26.5087 13.7399C25.8101 13.0393 24.957 12.5124 24.0178 12.2015L20.9358 11.201C20.6984 11.1174 20.4927 10.9621 20.3472 10.7567C20.2017 10.5512 20.1235 10.3056 20.1235 10.0539C20.1235 9.80209 20.2017 9.55653 20.3472 9.35106C20.4927 9.14559 20.6984 8.99034 20.9358 8.90674L24.0178 7.90624C24.9435 7.58865 25.7827 7.06062 26.4697 6.36369C27.1566 5.66677 27.6725 4.81995 27.9767 3.88986L28.9772 0.813612C29.0602 0.575127 29.2154 0.368391 29.4212 0.222093C29.627 0.0757954 29.8733 -0.00280762 30.1258 -0.00280762C30.3783 -0.00280762 30.6245 0.0757954 30.8304 0.222093C31.0362 0.368391 31.1914 0.572252 31.2743 0.810737Z" fill="url(#paint3_radial_379_890)"/>
</g>
<defs>
<linearGradient id="paint0_linear_379_890" x1="25.1562" y1="10.0625" x2="5.75" y2="31.625" gradientUnits="userSpaceOnUse">
<stop stop-color="#DBDBDB"/>
<stop offset="1" stop-color="#DDDCE2"/>
</linearGradient>
<linearGradient id="paint1_linear_379_890" x1="4.84143" y1="36.3169" x2="36.3169" y2="10.7438" gradientUnits="userSpaceOnUse">
<stop stop-color="#A7A171"/>
<stop offset="1" stop-color="#828746"/>
</linearGradient>
<radialGradient id="paint2_radial_379_890" cx="0" cy="0" r="1" gradientUnits="userSpaceOnUse" gradientTransform="translate(6.82685 -36.8355) rotate(63.379) scale(82.2644 64.0573)">
<stop offset="0.718" stop-color="#CFE7C0"/>
<stop offset="0.991" stop-color="#8DA76B"/>
</radialGradient>
<radialGradient id="paint3_radial_379_890" cx="0" cy="0" r="1" gradientUnits="userSpaceOnUse" gradientTransform="translate(-4.85403 -50.6721) rotate(61.2) scale(86.5318 67.3802)">
<stop offset="0.00961538" stop-color="#C1DCAE"/>
<stop offset="0.991" stop-color="#8AA765"/>
</radialGradient>
<clipPath id="clip0_379_890">
<rect width="46" height="46" fill="white"/>
</clipPath>
</defs>
</svg>
