<svg width="23" height="23" viewBox="0 0 23 23" fill="none" xmlns="http://www.w3.org/2000/svg">
<path d="M19.0583 12.0089L20.3578 13.1661C20.5978 13.3664 20.7581 13.6459 20.8098 13.9542C20.8615 14.2624 20.8011 14.579 20.6396 14.8466L19.0727 17.5232C18.9511 17.7281 18.7776 17.8972 18.5696 18.0134C18.3592 18.1298 18.1229 18.1916 17.8824 18.1931C17.7333 18.194 17.5849 18.1717 17.4426 18.1269L15.7794 17.5778C15.488 17.7647 15.1852 17.9319 14.8709 18.0795L14.5216 19.7657C14.4569 20.0759 14.2842 20.353 14.0343 20.5477C13.7811 20.7458 13.4673 20.8505 13.1459 20.8438H9.90144C9.58003 20.8505 9.2662 20.7458 9.01306 20.5477C8.76363 20.3528 8.59145 20.0757 8.52719 19.7657L8.17644 18.0795C7.86623 17.9299 7.56525 17.7619 7.27513 17.5764L5.60619 18.1269C5.46388 18.1717 5.31548 18.194 5.16631 18.1931C4.92634 18.1913 4.69061 18.1296 4.48063 18.0134C4.27282 17.8976 4.09926 17.729 3.9775 17.5246L2.35456 14.8466C2.18584 14.5766 2.12137 14.2543 2.17324 13.9402C2.22511 13.6261 2.38975 13.3417 2.63631 13.1402L3.93438 11.5001V10.9912L2.63488 9.83399C2.3949 9.63374 2.23456 9.35418 2.18288 9.04594C2.1312 8.73769 2.19159 8.42113 2.35313 8.15355L3.97606 5.47693C4.09763 5.27204 4.2712 5.10293 4.47919 4.98674C4.68917 4.87055 4.9249 4.80878 5.16488 4.80705C5.3127 4.79773 5.46108 4.81131 5.60475 4.8473L7.24063 5.4223C7.53292 5.23543 7.83575 5.0682 8.14913 4.92062L8.49988 3.23443C8.56414 2.92446 8.73631 2.64735 8.98575 2.45243C9.23889 2.25426 9.55272 2.14965 9.87413 2.1563H13.0913C13.4127 2.14965 13.7265 2.25426 13.9796 2.45243C14.2312 2.64937 14.4037 2.9268 14.4655 3.23443L14.8163 4.92062C15.1277 5.06916 15.4281 5.23687 15.7176 5.42374L17.3879 4.87462C17.5733 4.81431 17.7692 4.79314 17.9632 4.81244C18.1572 4.83174 18.3451 4.89109 18.5149 4.98674C18.7234 5.10462 18.8959 5.27424 19.0181 5.47549L20.6396 8.15355C20.8106 8.42125 20.8783 8.74202 20.8302 9.05599C20.782 9.36997 20.6213 9.6557 20.3779 9.85987L19.0583 10.984V12.0089Z" stroke="#333333" stroke-width="1.5"/>
<path d="M15.0938 11.5C15.0938 12.4531 14.7151 13.3672 14.0412 14.0412C13.3672 14.7151 12.4531 15.0938 11.5 15.0938C10.5469 15.0938 9.63279 14.7151 8.95884 14.0412C8.28488 13.3672 7.90625 12.4531 7.90625 11.5C7.90625 10.5469 8.28488 9.63279 8.95884 8.95884C9.63279 8.28488 10.5469 7.90625 11.5 7.90625C12.4531 7.90625 13.3672 8.28488 14.0412 8.95884C14.7151 9.63279 15.0938 10.5469 15.0938 11.5Z" stroke="#333333" stroke-width="1.5"/>
</svg>
