<svg width="18" height="16" viewBox="0 0 18 16" fill="none" xmlns="http://www.w3.org/2000/svg">
<g clip-path="url(#clip0_686_1790)">
<path d="M17.1424 6.85734H17.1604C17.4704 6.85734 17.7504 6.98534 17.9504 7.19201C18.157 7.39267 18.285 7.67267 18.285 7.98267V8.00134V8.01867C18.285 8.32867 18.157 8.60867 17.9504 8.80867C17.7497 9.01534 17.4697 9.14334 17.1597 9.14334H17.141H17.0077L15.9804 15.056C15.9366 15.3217 15.7974 15.5622 15.589 15.7327L15.587 15.734C15.3937 15.9 15.1404 16.0013 14.8637 16.0013H3.41902C3.14236 16.0013 2.88902 15.9 2.69436 15.7327L2.69569 15.734C2.48753 15.5652 2.34814 15.3263 2.30369 15.062L2.30302 15.0553L1.27569 9.14267H1.12369C0.81369 9.14267 0.53369 9.01467 0.33369 8.80801C0.227747 8.70538 0.143523 8.5825 0.0860302 8.44667C0.028537 8.31084 -0.0010518 8.16484 -0.000976419 8.01734V7.98134C-0.000976419 7.67134 0.127024 7.39134 0.33369 7.19134C0.534357 6.98467 0.814357 6.85667 1.12436 6.85667H1.14302H1.14236L17.1424 6.85734ZM4.32702 14C4.40185 13.995 4.47485 13.9747 4.54149 13.9403C4.60812 13.9059 4.66697 13.8581 4.71436 13.8L4.71502 13.7993C4.76577 13.7432 4.8043 13.6771 4.82817 13.6052C4.85204 13.5334 4.86073 13.4574 4.85369 13.382V13.384L4.56769 9.66934C4.5627 9.59451 4.54238 9.52151 4.50797 9.45487C4.47356 9.38824 4.42581 9.3294 4.36769 9.28201L4.36702 9.28134C4.31085 9.23059 4.24475 9.19206 4.17292 9.16819C4.10108 9.14432 4.02506 9.13563 3.94969 9.14267H3.95169C3.87686 9.14766 3.80386 9.16799 3.73723 9.20239C3.67059 9.2368 3.61175 9.28455 3.56436 9.34267L3.56369 9.34334C3.51294 9.39951 3.47441 9.46561 3.45054 9.53745C3.42667 9.60929 3.41798 9.6853 3.42502 9.76067V9.75867L3.71102 13.4733C3.72075 13.6173 3.78629 13.7517 3.89369 13.848L3.89436 13.8487C3.99728 13.9464 4.13379 14.0008 4.27569 14.0007H4.28302H4.28236L4.32702 14ZM7.99702 13.4293V9.70934C7.99708 9.63531 7.98211 9.56203 7.953 9.49396C7.92389 9.42589 7.88126 9.36444 7.82769 9.31334C7.77651 9.25969 7.71495 9.21701 7.64676 9.1879C7.57857 9.15879 7.50517 9.14386 7.43102 9.14401H7.42036C7.34632 9.14395 7.27305 9.15892 7.20498 9.18803C7.13691 9.21714 7.07546 9.25977 7.02436 9.31334C6.97071 9.36452 6.92803 9.42607 6.89892 9.49427C6.86981 9.56246 6.85487 9.63586 6.85502 9.71001V13.4353C6.85502 13.5913 6.91969 13.732 7.02436 13.8313C7.07554 13.885 7.13709 13.9277 7.20529 13.9568C7.27348 13.9859 7.34688 14.0008 7.42102 14.0007H7.43169C7.50572 14.0007 7.579 13.9858 7.64707 13.9566C7.71514 13.9275 7.77659 13.8849 7.82769 13.8313C7.88207 13.7802 7.92539 13.7184 7.95497 13.6498C7.98455 13.5812 7.99977 13.5073 7.99969 13.4327V13.4287L7.99702 13.4293ZM11.4257 13.4293V9.70934C11.4257 9.63531 11.4108 9.56203 11.3817 9.49396C11.3526 9.42589 11.3099 9.36444 11.2564 9.31334C11.2052 9.25969 11.1436 9.21701 11.0754 9.1879C11.0072 9.15879 10.9338 9.14386 10.8597 9.14401H10.849C10.775 9.14395 10.7017 9.15892 10.6336 9.18803C10.5656 9.21714 10.5041 9.25977 10.453 9.31334C10.3994 9.36452 10.3567 9.42607 10.3276 9.49427C10.2985 9.56246 10.2835 9.63586 10.2837 9.71001V13.4353C10.2837 13.5913 10.3484 13.732 10.453 13.8313C10.5042 13.885 10.5658 13.9277 10.634 13.9568C10.7021 13.9859 10.7755 14.0008 10.8497 14.0007H10.8604C10.9344 14.0007 11.0077 13.9858 11.0757 13.9566C11.1438 13.9275 11.2053 13.8849 11.2564 13.8313C11.3107 13.7802 11.3541 13.7184 11.3836 13.6498C11.4132 13.5812 11.4284 13.5073 11.4284 13.4327V13.4287L11.4257 13.4293ZM14.5684 13.4733L14.8544 9.75867C14.8608 9.68354 14.8518 9.60789 14.828 9.53635C14.8041 9.46481 14.7659 9.39891 14.7157 9.34267L14.7164 9.34334C14.6689 9.28535 14.6102 9.2376 14.5437 9.20299C14.4772 9.16838 14.4044 9.14763 14.3297 9.14201H14.3277C14.2526 9.13555 14.1769 9.14453 14.1054 9.16837C14.0338 9.19222 13.9679 9.23043 13.9117 9.28067L13.9124 9.28001C13.8544 9.32747 13.8066 9.38621 13.772 9.45268C13.7374 9.51914 13.7167 9.59195 13.711 9.66667V9.66867L13.425 13.3833C13.4186 13.4585 13.4275 13.5341 13.4514 13.6057C13.4752 13.6772 13.5135 13.7431 13.5637 13.7993L13.563 13.7987C13.6105 13.8567 13.6692 13.9044 13.7357 13.939C13.8022 13.9736 13.875 13.9944 13.9497 14H14.003C14.1452 14.0003 14.2819 13.9459 14.385 13.848C14.494 13.7519 14.5608 13.6169 14.571 13.472V13.47L14.5684 13.4733ZM4.24969 2.60667L3.41969 6.28534H2.24102L3.14236 2.34801C3.25102 1.82467 3.53569 1.38134 3.93036 1.07134L3.93502 1.06801C4.33214 0.745825 4.82832 0.570623 5.33969 0.572006H5.36502H5.36369H6.85436V0.566673C6.85436 0.410673 6.91902 0.270006 7.02369 0.170673C7.07489 0.11682 7.13653 0.0739704 7.20484 0.0447413C7.27316 0.0155123 7.34672 0.000517351 7.42102 0.00067258H10.8624C11.0184 0.00067258 11.159 0.0653393 11.2584 0.170006C11.312 0.221184 11.3547 0.282742 11.3838 0.350934C11.4129 0.419126 11.4278 0.492527 11.4277 0.566673V0.572006H12.943C13.477 0.572006 13.967 0.758673 14.351 1.07067L14.347 1.06734C14.7515 1.38287 15.0314 1.83133 15.137 2.33334L15.1397 2.34734L16.041 6.28467H14.8624L14.0324 2.60601C13.9719 2.35362 13.8299 2.1282 13.6284 1.96467L13.6264 1.96267C13.4301 1.80073 13.1835 1.71232 12.929 1.71267H11.4257V1.71801C11.4257 1.79204 11.4108 1.86531 11.3817 1.93338C11.3526 2.00146 11.3099 2.0629 11.2564 2.11401C11.2052 2.16766 11.1436 2.21033 11.0754 2.23945C11.0072 2.26856 10.9338 2.28349 10.8597 2.28334H7.42102C7.34699 2.2834 7.27372 2.26842 7.20565 2.23931C7.13757 2.21021 7.07613 2.16757 7.02502 2.11401C6.97137 2.06283 6.9287 2.00127 6.89958 1.93308C6.87047 1.86489 6.85554 1.79148 6.85569 1.71734V1.71201H5.35236C5.09728 1.71172 4.85013 1.80063 4.65369 1.96334L4.65569 1.96201C4.45551 2.12413 4.31424 2.34763 4.25369 2.59801L4.25236 2.60601L4.24969 2.60667Z" fill="#40684B"/>
</g>
<defs>
<clipPath id="clip0_686_1790">
<rect width="18" height="16" fill="white"/>
</clipPath>
</defs>
</svg>
