<svg width="48" height="48" viewBox="0 0 48 48" fill="none" xmlns="http://www.w3.org/2000/svg">
<path d="M22.084 2.004H4.87C3.284 2.004 2 3.288 2 4.874V31.65C2 33.236 3.284 34.52 4.87 34.52H22.084C23.668 34.52 24.952 33.236 24.952 31.65V4.874C24.952 3.288 23.67 2.004 22.084 2.004Z" fill="white"/>
<path d="M24.952 7.742H2V26.87H24.952V7.742Z" fill="#1D4610"/>
<path d="M23.04 7.742H2V26.87H3.912L23.04 7.742Z" fill="#67AE50"/>
<path d="M43.1221 17.306H16.3441C14.7601 17.306 13.4761 18.59 13.4761 20.174V37.388C13.4761 38.974 14.7601 40.258 16.3441 40.258H43.1221C44.7061 40.258 45.9921 38.974 45.9921 37.388V20.174C45.9921 18.59 44.7061 17.306 43.1221 17.306Z" fill="white"/>
<path d="M40.2539 17.306H21.1279V40.258H40.2539V17.306Z" fill="#1D4610"/>
<path d="M40.2539 19.22V17.306H21.1279V38.346L40.2539 19.22Z" fill="#67AE50"/>
<path d="M36.4281 2.004H30.6901C30.183 2.004 29.6967 2.20544 29.3381 2.56401C28.9795 2.92258 28.7781 3.4089 28.7781 3.916V17.306C28.7781 18.362 29.6341 19.218 30.6901 19.218H36.4281C36.9352 19.218 37.4215 19.0166 37.7801 18.658C38.1386 18.2994 38.3401 17.8131 38.3401 17.306V3.916C38.3401 3.4089 38.1386 2.92258 37.7801 2.56401C37.4215 2.20544 36.9352 2.004 36.4281 2.004Z" fill="white"/>
<path d="M38.34 5.83H28.78V15.394H38.342L38.34 5.83Z" fill="#1D4610"/>
<path d="M28.7781 15.394V5.83H38.3401L28.7781 15.394Z" fill="#67AE50"/>
<path d="M45.0361 45.996L45.9921 39.724C46.029 39.3342 45.9391 38.9428 45.7359 38.6081C45.5327 38.2734 45.227 38.0132 44.8641 37.866L34.5161 34.154V25.914C34.5161 25.1528 34.2137 24.4228 33.6755 23.8846C33.1373 23.3464 32.4073 23.044 31.6461 23.044C30.8849 23.044 30.1549 23.3464 29.6167 23.8846C29.0785 24.4228 28.7761 25.1528 28.7761 25.914V41.58L25.4881 37.644C25.2994 37.4228 25.0648 37.2454 24.8005 37.1242C24.5363 37.003 24.2488 36.9408 23.9581 36.942L22.0461 36.974C21.7231 36.9738 21.4056 37.0573 21.1245 37.2164C20.8435 37.3755 20.6085 37.6047 20.4424 37.8818C20.2764 38.1588 20.1851 38.4742 20.1773 38.797C20.1695 39.1199 20.2456 39.4393 20.3981 39.724L23.8641 45.996" fill="#FFDDA1"/>
<path d="M45.036 45.996L45.992 39.724C46.0289 39.3342 45.939 38.9428 45.7358 38.6081C45.5326 38.2734 45.2269 38.0131 44.864 37.866L34.516 34.154V25.914C34.516 25.1528 34.2136 24.4228 33.6754 23.8846C33.1372 23.3464 32.4072 23.044 31.646 23.044C30.8848 23.044 30.1548 23.3464 29.6166 23.8846C29.0784 24.4228 28.776 25.1528 28.776 25.914V41.58L25.488 37.644C25.2993 37.4228 25.0647 37.2454 24.8005 37.1242C24.5362 37.003 24.2487 36.9408 23.958 36.942L22.046 36.974C21.723 36.9738 21.4055 37.0573 21.1244 37.2164C20.8434 37.3755 20.6084 37.6047 20.4424 37.8818C20.2763 38.1588 20.185 38.4742 20.1772 38.797C20.1694 39.1199 20.2455 39.4393 20.398 39.724L23.864 45.996M9.65 34.52H4.87C4.49311 34.52 4.1199 34.4458 3.7717 34.3015C3.42349 34.1573 3.10711 33.9459 2.8406 33.6794C2.5741 33.4129 2.3627 33.0965 2.21847 32.7483C2.07424 32.4001 2 32.0269 2 31.65V4.874C1.99974 4.49703 2.07379 4.12371 2.21793 3.77539C2.36207 3.42706 2.57346 3.11057 2.84002 2.84402C3.10657 2.57746 3.42307 2.36607 3.77139 2.22193C4.11971 2.07779 4.49303 2.00374 4.87 2.004H22.084C22.8448 2.00453 23.5743 2.30714 24.1121 2.84531C24.6499 3.38348 24.952 4.11317 24.952 4.874V13.48M2 26.87H9.65M21.128 17.306V33.564M28.778 15.392H38.34M28.778 5.83H38.34M2.002 7.742H24.954M40.254 22.088V32.608M42.168 17.306H43.124C43.8846 17.306 44.6141 17.6082 45.152 18.146C45.6898 18.6839 45.992 19.4134 45.992 20.174V34.52M36.428 2.004H30.69C30.1829 2.004 29.6966 2.20544 29.338 2.56401C28.9794 2.92258 28.778 3.4089 28.778 3.916V17.306C28.778 18.362 29.634 19.218 30.69 19.218H36.428C36.9351 19.218 37.4214 19.0166 37.78 18.658C38.1386 18.2994 38.34 17.8131 38.34 17.306V3.916C38.34 3.4089 38.1386 2.92258 37.78 2.56401C37.4214 2.20544 36.9351 2.004 36.428 2.004Z" stroke="#191919" stroke-width="2" stroke-linecap="round" stroke-linejoin="round"/>
<path d="M16.3441 40.258C15.5832 40.2575 14.8538 39.9549 14.316 39.4167C13.7782 38.8785 13.4761 38.1488 13.4761 37.388V20.174C13.4766 19.4135 13.7789 18.6843 14.3167 18.1466C14.8544 17.6089 15.5836 17.3065 16.3441 17.306H24.9521" stroke="#191919" stroke-width="2" stroke-linecap="round" stroke-linejoin="round"/>
</svg>
