<svg width="23" height="23" viewBox="0 0 23 23" fill="none" xmlns="http://www.w3.org/2000/svg">
<g clip-path="url(#clip0_379_881)">
<path d="M23.0002 13.4167C22.9997 12.5253 22.7229 11.656 22.2081 10.9283C21.6933 10.2007 20.9656 9.65046 20.1252 9.35333V8.625C20.1252 6.33751 19.2165 4.14371 17.599 2.5262C15.9815 0.908703 13.7877 0 11.5002 0C9.21269 0 7.01889 0.908703 5.40139 2.5262C3.78389 4.14371 2.87519 6.33751 2.87519 8.625V9.35333C2.03613 9.65164 1.30999 10.2024 0.796498 10.9299C0.283001 11.6575 0.00732422 12.5262 0.00732422 13.4167C0.00732422 14.3072 0.283001 15.1758 0.796498 15.9034C1.30999 16.6309 2.03613 17.1817 2.87519 17.48C3.09234 17.5555 3.32413 17.5792 3.55208 17.5493C3.78002 17.5193 3.99782 17.4365 4.1881 17.3075C4.37416 17.1722 4.52576 16.9949 4.63065 16.7902C4.73553 16.5854 4.79075 16.3588 4.79185 16.1288V8.625C4.79185 6.84584 5.49862 5.13955 6.75668 3.88149C8.01473 2.62344 9.72102 1.91667 11.5002 1.91667C13.2793 1.91667 14.9856 2.62344 16.2437 3.88149C17.5017 5.13955 18.2085 6.84584 18.2085 8.625V16.1288C18.2109 16.3281 18.2548 16.5247 18.3373 16.7062C18.4198 16.8877 18.5391 17.05 18.6877 17.1829V17.7292C18.6877 19.1475 17.4514 19.6458 16.2919 19.6458H14.586C14.4175 19.354 14.1751 19.1118 13.8832 18.9436C13.5913 18.7753 13.2602 18.687 12.9232 18.6875C12.5863 18.6881 12.2555 18.7774 11.9641 18.9465C11.6727 19.1156 11.431 19.3586 11.2634 19.6509C11.0958 19.9432 11.0082 20.2745 11.0095 20.6114C11.0108 20.9484 11.1008 21.279 11.2706 21.57C11.4404 21.8611 11.6839 22.1022 11.9766 22.2691C12.2693 22.436 12.6008 22.5229 12.9377 22.5208C13.2722 22.5188 13.6003 22.4293 13.8895 22.2612C14.1786 22.0931 14.4188 21.8522 14.586 21.5625H16.2919C18.8314 21.5625 20.6044 19.9908 20.6044 17.7292V17.25C21.3193 16.8953 21.9218 16.3492 22.3448 15.6724C22.7678 14.9956 22.9947 14.2147 23.0002 13.4167Z" fill="#333333"/>
<path d="M10.3021 16.0521C10.3021 16.3698 10.4283 16.6745 10.6529 16.8992C10.8776 17.1238 11.1823 17.25 11.5 17.25C11.8177 17.25 12.1224 17.1238 12.3471 16.8992C12.5717 16.6745 12.6979 16.3698 12.6979 16.0521C12.6979 15.7344 12.5717 15.4297 12.3471 15.2051C12.1224 14.9804 11.8177 14.8542 11.5 14.8542C11.1823 14.8542 10.8776 14.9804 10.6529 15.2051C10.4283 15.4297 10.3021 15.7344 10.3021 16.0521ZM9.10417 10.0625C9.42187 10.0625 9.72657 9.93632 9.95122 9.71167C10.1759 9.48702 10.3021 9.18232 10.3021 8.86461C10.3028 8.64882 10.3619 8.43724 10.4729 8.25222C10.584 8.06721 10.743 7.91563 10.9331 7.81351C11.1232 7.71138 11.3373 7.66251 11.5529 7.67204C11.7685 7.68158 11.9775 7.74918 12.1579 7.86769C12.3382 7.9862 12.4832 8.15122 12.5775 8.34532C12.6718 8.53942 12.7119 8.75539 12.6936 8.97041C12.6753 9.18542 12.5992 9.3915 12.4735 9.56687C12.3477 9.74224 12.1769 9.88038 11.9792 9.9667C11.4807 10.1834 11.0564 10.541 10.7584 10.9956C10.4605 11.4502 10.3019 11.9819 10.3021 12.5254V13.0621C10.3021 13.3798 10.4283 13.6845 10.6529 13.9092C10.8776 14.1338 11.1823 14.26 11.5 14.26C11.8177 14.26 12.1224 14.1338 12.3471 13.9092C12.5717 13.6845 12.6979 13.3798 12.6979 13.0621V12.5254C12.6987 12.4481 12.7217 12.3727 12.7641 12.3081C12.8066 12.2435 12.8668 12.1926 12.9375 12.1613C13.5312 11.9022 14.0438 11.4874 14.4212 10.9608C14.7985 10.4343 15.0265 9.81552 15.081 9.17003C15.1355 8.52453 15.0146 7.8763 14.7309 7.29392C14.4472 6.71153 14.0114 6.21664 13.4696 5.86161C12.9278 5.50658 12.3 5.30461 11.6528 5.27706C11.0056 5.24951 10.363 5.3974 9.79297 5.70511C9.22292 6.01281 8.74664 6.46887 8.41452 7.02504C8.0824 7.58122 7.90678 8.21682 7.90625 8.86461C7.90625 9.18232 8.03246 9.48702 8.25711 9.71167C8.48176 9.93632 8.78646 10.0625 9.10417 10.0625Z" fill="#333333"/>
</g>
<defs>
<clipPath id="clip0_379_881">
<rect width="23" height="23" fill="white"/>
</clipPath>
</defs>
</svg>
