<svg width="24" height="21" viewBox="0 0 24 21" fill="none" xmlns="http://www.w3.org/2000/svg">
<path d="M14.004 8.4444C13.9089 8.44376 13.8175 8.48075 13.7496 8.54729C13.6817 8.61384 13.6429 8.70454 13.6416 8.7996V11.454C13.6429 11.5493 13.6818 11.6402 13.75 11.7067C13.8182 11.7733 13.9099 11.8102 14.0052 11.8092H22.0008C22.0961 11.8102 22.1878 11.7733 22.256 11.7067C22.3242 11.6402 22.3631 11.5493 22.3644 11.454V8.7996C22.3631 8.70433 22.3242 8.61345 22.256 8.54687C22.1878 8.48029 22.0961 8.44344 22.0008 8.4444H14.004ZM18.9072 0.00120006C20.0136 0.0540001 20.8092 0.2724 21.3132 0.7356C21.8112 1.194 22.0668 1.8576 22.1172 2.736V5.2524C22.1147 5.4667 22.0272 5.67124 21.874 5.82108C21.7207 5.97093 21.5143 6.05384 21.3 6.0516C21.1938 6.05287 21.0884 6.0332 20.9897 5.99372C20.8911 5.95424 20.8013 5.89573 20.7253 5.82151C20.6493 5.7473 20.5886 5.65884 20.5468 5.56119C20.505 5.46354 20.4829 5.35862 20.4816 5.2524L20.4828 2.7816C20.4564 2.3256 20.3472 2.0424 20.1912 1.8984C20.04 1.7592 19.5792 1.6344 18.8676 1.5984H3.1764C2.532 1.6224 2.1132 1.7448 1.9104 1.9188C1.7544 2.052 1.6368 2.4192 1.6356 3.054L1.632 17.178C1.692 17.7948 1.8276 18.2064 2.0016 18.4116C2.1336 18.5676 2.5428 18.7236 3.1452 18.8004H18.8844C19.6212 18.8148 20.0556 18.7044 20.202 18.5568C20.364 18.3924 20.4816 17.9604 20.4816 17.2536V14.7996C20.4816 14.3592 20.8476 14.0004 21.3 14.0004C21.7512 14.0004 22.1172 14.3592 22.1172 14.7996V17.2536C22.1172 18.3336 21.8964 19.1412 21.3792 19.6656C20.8464 20.2056 19.9992 20.4216 18.8676 20.3976L3.048 20.394C1.9716 20.2692 1.2 19.974 0.7404 19.4304C0.324 18.9384 0.0924 18.2364 0 17.2548V3.0528C0.0024 2.0016 0.2544 1.2108 0.8328 0.7164C1.3632 0.2604 2.1288 0.0384 3.1452 0L18.9072 0.00120006ZM22.0008 6.846C23.1048 6.846 24 7.7208 24 8.7996V11.454C24 12.5328 23.1048 13.4076 22.0008 13.4076H14.0052C12.9012 13.4076 12.006 12.5316 12.006 11.454V8.7996C12.006 7.7208 12.9012 6.846 14.0052 6.846H22.0008ZM16.0044 9.174C15.4524 9.174 15.0048 9.606 15.0048 10.1376C15.0048 10.6692 15.4524 11.1012 16.0044 11.1012C16.5564 11.1012 17.004 10.6692 17.004 10.1376C17.004 9.606 16.5564 9.1728 16.0044 9.1728" fill="black"/>
</svg>
