<svg width="27" height="27" viewBox="0 0 27 27" fill="none" xmlns="http://www.w3.org/2000/svg">
<path d="M24.75 9.18219V9.26432C24.75 10.2318 24.75 10.7167 24.5171 11.1127C24.2842 11.5087 23.8601 11.7438 23.0141 12.2152L22.122 12.7102C22.7362 10.6312 22.9421 8.39694 23.0175 6.48669L23.0287 6.23807L23.031 6.17957C23.7634 6.43382 24.1751 6.62394 24.4316 6.97944C24.75 7.42157 24.75 8.00882 24.75 9.18219ZM2.25 9.18219V9.26432C2.25 10.2318 2.25 10.7167 2.48288 11.1127C2.71575 11.5087 3.13987 11.7438 3.98588 12.2152L4.87912 12.7102C4.26375 10.6312 4.05787 8.39694 3.9825 6.48669L3.97125 6.23807L3.97013 6.17957C3.23663 6.43382 2.82487 6.62394 2.56837 6.97944C2.25 7.42157 2.25 8.00994 2.25 9.18219Z" fill="#383E1A"/>
<path fill-rule="evenodd" clip-rule="evenodd" d="M13.5 2.25001C15.507 2.25001 17.1596 2.42664 18.4241 2.64039C19.7055 2.85639 20.3456 2.96439 20.8811 3.62364C21.4166 4.28289 21.3873 4.99501 21.3311 6.41926C21.1376 11.3119 20.0823 17.4218 14.3437 17.9618V21.9375H15.9525C16.2124 21.9377 16.4643 22.0279 16.6653 22.1928C16.8663 22.3577 17.004 22.5871 17.055 22.842L17.2687 23.9063H20.25C20.4737 23.9063 20.6884 23.9952 20.8466 24.1534C21.0048 24.3116 21.0937 24.5262 21.0937 24.75C21.0937 24.9738 21.0048 25.1884 20.8466 25.3466C20.6884 25.5049 20.4737 25.5938 20.25 25.5938H6.74997C6.52619 25.5938 6.31158 25.5049 6.15335 25.3466C5.99511 25.1884 5.90622 24.9738 5.90622 24.75C5.90622 24.5262 5.99511 24.3116 6.15335 24.1534C6.31158 23.9952 6.52619 23.9063 6.74997 23.9063H9.73122L9.94497 22.842C9.99592 22.5871 10.1336 22.3577 10.3346 22.1928C10.5356 22.0279 10.7875 21.9377 11.0475 21.9375H12.6562V17.9618C6.91872 17.4218 5.86347 11.3108 5.66997 6.41926C5.61259 4.99501 5.58447 4.28176 6.11997 3.62364C6.65434 2.96439 7.29447 2.85639 8.57584 2.64039C10.2035 2.37376 11.8506 2.24318 13.5 2.25001ZM14.571 6.97389L14.4607 6.77589C14.0332 6.00751 13.8195 5.62501 13.5 5.62501C13.1805 5.62501 12.9667 6.00751 12.5392 6.77589L12.429 6.97389C12.3075 7.19214 12.2467 7.30014 12.1522 7.37214C12.0566 7.44414 11.9385 7.47114 11.7022 7.52401L11.4885 7.57351C10.6582 7.76139 10.2431 7.85476 10.1441 8.17201C10.0451 8.48926 10.3286 8.82114 10.8945 9.48264L11.0407 9.65364C11.2016 9.84151 11.2826 9.93489 11.3186 10.0519C11.3546 10.1689 11.3422 10.2938 11.3186 10.5446L11.2961 10.773C11.2106 11.6561 11.1678 12.0983 11.4255 12.294C11.6842 12.4898 12.0735 12.3109 12.8508 11.9531L13.0511 11.8609C13.2727 11.7596 13.383 11.709 13.5 11.709C13.617 11.709 13.7272 11.7596 13.9488 11.8609L14.1491 11.9531C14.9265 12.312 15.3157 12.4898 15.5745 12.294C15.8332 12.0983 15.7893 11.6561 15.7038 10.773L15.6813 10.5446C15.6577 10.2938 15.6453 10.1689 15.6813 10.0519C15.7173 9.93489 15.7983 9.84151 15.9592 9.65364L16.1055 9.48264C16.6713 8.82114 16.9548 8.49039 16.8558 8.17201C16.7568 7.85476 16.3417 7.76139 15.5115 7.57351L15.2977 7.52401C15.0615 7.47114 14.9433 7.44526 14.8477 7.37214C14.7532 7.30014 14.6925 7.19214 14.571 6.97389Z" fill="#383E1A"/>
</svg>
