<svg width="16" height="16" viewBox="0 0 16 16" fill="none" xmlns="http://www.w3.org/2000/svg">
<g clip-path="url(#clip0_686_1786)">
<path d="M14.9231 5.59611C14.1618 5.23617 13.358 4.97393 12.5309 4.81563C11.9091 4.6926 11.2791 4.61564 10.646 4.58538C10.4279 4.0313 10.1669 3.49505 9.86555 2.98148C9.46512 2.24138 8.97348 1.5544 8.40214 0.936602C8.22345 0.768963 7.98764 0.675659 7.74262 0.675659C7.49761 0.675659 7.2618 0.768963 7.08311 0.936602C6.51197 1.56027 6.02041 2.25238 5.6197 2.99709C5.33255 3.51729 5.07966 4.05567 4.86262 4.6088C4.26409 4.6409 3.66904 4.7205 3.08311 4.84685C2.25615 5.00097 1.45137 5.25656 0.687015 5.60782C0.476236 5.73017 0.319129 5.92726 0.246846 6.16001C0.174564 6.39276 0.192383 6.64418 0.296771 6.86441C0.706554 7.59852 1.20599 8.27886 1.7836 8.88977C2.19625 9.33003 2.63684 9.74324 3.10262 10.1268C2.92596 10.7462 2.80195 11.3793 2.73189 12.0195C2.62807 12.8527 2.62807 13.6956 2.73189 14.5288C2.77764 14.7704 2.91361 14.9855 3.11221 15.1305C3.31081 15.2754 3.55713 15.3394 3.80116 15.3093C4.62519 15.1488 5.4261 14.8866 6.18555 14.5288C6.72325 14.2725 7.24457 13.9832 7.74653 13.6625C8.2474 13.985 8.76884 14.2744 9.3075 14.5288C10.0669 14.8866 10.8679 15.1488 11.6919 15.3093C11.9359 15.3394 12.1822 15.2754 12.3808 15.1305C12.5794 14.9855 12.7154 14.7704 12.7612 14.5288C12.865 13.6956 12.865 12.8527 12.7612 12.0195C12.6972 11.4068 12.585 10.8 12.4256 10.2049C12.9363 9.80428 13.4104 9.35894 13.8421 8.87416C14.4193 8.26195 14.9199 7.58184 15.3329 6.8488C15.4364 6.627 15.4516 6.37412 15.3755 6.14148C15.2994 5.90884 15.1377 5.71387 14.9231 5.59611Z" fill="#40684B" stroke="#40684B" stroke-width="0.390244" stroke-miterlimit="10"/>
<path d="M8.39844 2.47418C8.77317 2.99767 9.09724 3.55563 9.36624 4.14052" stroke="white" stroke-width="0.390244" stroke-miterlimit="10" stroke-linecap="round"/>
</g>
<defs>
<clipPath id="clip0_686_1786">
<rect width="16" height="16" fill="white"/>
</clipPath>
</defs>
</svg>
