<svg width="16" height="18" viewBox="0 0 16 18" fill="none" xmlns="http://www.w3.org/2000/svg">
<path fill-rule="evenodd" clip-rule="evenodd" d="M12.9738 0.0563212L13.1863 0.0829877C13.748 0.160488 14.4913 0.264654 14.9122 0.686321C15.2572 1.03049 15.3897 1.59049 15.4688 2.09049L15.5155 2.41215C15.6205 3.17049 15.648 4.16382 15.4688 5.26715C15.1155 7.44465 13.9563 10.043 11.0455 12.0547C11.0297 12.2113 11.0288 12.3697 11.0322 12.528L11.0405 12.7647C11.0538 13.1288 11.0672 13.493 10.9655 13.8463C10.8072 14.3963 10.243 14.7588 9.71551 15.0188L9.45718 15.1413L9.12384 15.288C8.50051 15.553 7.65884 15.8247 7.13134 15.2963C6.81468 14.9805 6.68468 14.5172 6.57884 14.0563L6.53968 13.8838C6.49491 13.6662 6.43928 13.4509 6.37301 13.2388C6.33134 13.1166 6.28634 12.993 6.23801 12.868C6.18482 12.9333 6.12836 12.9959 6.06884 13.0555C5.78134 13.343 5.35218 13.5438 4.99884 13.6847C4.61301 13.8372 4.17634 13.9705 3.77218 14.0805L3.56468 14.1355L3.16718 14.2347L2.80718 14.318L2.37634 14.4097L2.10718 14.4622C1.97294 14.487 1.83466 14.4788 1.70428 14.4383C1.5739 14.3978 1.45533 14.3262 1.3588 14.2297C1.26226 14.1332 1.19065 14.0146 1.15016 13.8842C1.10966 13.7538 1.10149 13.6156 1.12634 13.4813L1.19801 13.1222L1.32634 12.5405L1.42968 12.1155L1.50801 11.8155C1.61801 11.4122 1.75134 10.9755 1.90468 10.5905C2.04468 10.2363 2.24551 9.80716 2.53301 9.51966L2.59968 9.45549L2.54634 9.43382C2.40391 9.37973 2.25965 9.33053 2.11384 9.28632L1.88301 9.21549C1.30468 9.04049 0.686344 8.85215 0.302177 8.46715C-0.164489 8.00132 -0.00698951 7.29215 0.218011 6.70215L0.309677 6.47382L0.457177 6.14049L0.579677 5.88215C0.839677 5.35549 1.20218 4.79132 1.75218 4.63299C2.04384 4.54965 2.34718 4.54465 2.65218 4.55299L2.83551 4.55882C3.07384 4.56715 3.31134 4.57632 3.54384 4.55382C5.55551 1.64215 8.15384 0.482988 10.3313 0.129654C11.2049 -0.0136165 12.0937 -0.0382837 12.9738 0.0563212ZM4.79718 10.6188C4.66607 10.5216 4.50931 10.4651 4.34635 10.4562C4.18339 10.4473 4.02141 10.4865 3.88051 10.5688L3.78884 10.6305L3.71134 10.6997L3.60718 10.8313C3.39051 11.1447 3.26718 11.578 3.17134 11.983L3.08134 12.373L3.03884 12.5505L3.19801 12.5122L3.54634 12.4322C4.02801 12.3197 4.56218 12.1738 4.89051 11.878C5.03327 11.7353 5.11939 11.5457 5.13288 11.3443C5.14637 11.1429 5.0863 10.9434 4.96384 10.783L4.89551 10.7047L4.87551 10.6855L4.79718 10.6188ZM10.783 4.80715C10.6283 4.65236 10.4446 4.52956 10.2424 4.44576C10.0402 4.36197 9.82343 4.31882 9.60456 4.31878C9.38568 4.31874 9.16894 4.36181 8.96671 4.44554C8.76448 4.52926 8.58072 4.652 8.42593 4.80674C8.27113 4.96148 8.14833 5.14519 8.06453 5.34739C7.98074 5.54959 7.93759 5.76632 7.93755 5.98519C7.93751 6.20407 7.98058 6.42081 8.06431 6.62304C8.14803 6.82527 8.27077 7.00903 8.42551 7.16382C8.73802 7.47645 9.16193 7.65212 9.60397 7.6522C10.046 7.65228 10.47 7.47675 10.7826 7.16424C11.0952 6.85173 11.2709 6.42782 11.271 5.98578C11.271 5.54374 11.0955 5.11978 10.783 4.80715Z" fill="#40684B"/>
</svg>
