<svg width="14" height="14" viewBox="0 0 14 14" fill="none" xmlns="http://www.w3.org/2000/svg">
<path d="M7.51138e-07 6.66514C0.000335121 5.20354 0.480989 3.78256 1.36799 2.62087C2.25499 1.45919 3.49918 0.621197 4.90907 0.235861C6.31896 -0.149476 7.81641 -0.0607977 9.17097 0.488247C10.5255 1.03729 11.6621 2.01627 12.4058 3.27452C13.1495 4.53277 13.4591 6.00056 13.2869 7.45198C13.1147 8.90341 12.4704 10.258 11.4529 11.3074C10.4355 12.3567 9.10142 13.0426 7.65601 13.2595C6.21059 13.4764 4.73395 13.2123 3.45333 12.5078L0.861334 13.2971C0.745722 13.3324 0.622711 13.3355 0.505458 13.3062C0.388206 13.2769 0.281123 13.2163 0.195664 13.1308C0.110205 13.0454 0.0495847 12.9383 0.020287 12.821C-0.00901071 12.7038 -0.00588356 12.5808 0.029334 12.4651L0.818667 9.86914C0.28102 8.88685 -0.000530758 7.78495 7.51138e-07 6.66514ZM4 5.99848C4 6.17529 4.07024 6.34486 4.19526 6.46988C4.32029 6.59491 4.48986 6.66514 4.66667 6.66514H8.66667C8.84348 6.66514 9.01305 6.59491 9.13807 6.46988C9.2631 6.34486 9.33333 6.17529 9.33333 5.99848C9.33333 5.82167 9.2631 5.6521 9.13807 5.52707C9.01305 5.40205 8.84348 5.33181 8.66667 5.33181H4.66667C4.48986 5.33181 4.32029 5.40205 4.19526 5.52707C4.07024 5.6521 4 5.82167 4 5.99848ZM4.66667 7.99848C4.48986 7.99848 4.32029 8.06872 4.19526 8.19374C4.07024 8.31876 4 8.48833 4 8.66514C4 8.84195 4.07024 9.01152 4.19526 9.13655C4.32029 9.26157 4.48986 9.33181 4.66667 9.33181H7.33333C7.51015 9.33181 7.67971 9.26157 7.80474 9.13655C7.92976 9.01152 8 8.84195 8 8.66514C8 8.48833 7.92976 8.31876 7.80474 8.19374C7.67971 8.06872 7.51015 7.99848 7.33333 7.99848H4.66667Z" fill="#40684B"/>
</svg>
