<svg width="14" height="14" viewBox="0 0 14 14" fill="none" xmlns="http://www.w3.org/2000/svg">
<path d="M2.06 0.27875C4.21 0.27875 5.2775 2.59 5.6225 3.52625C5.67125 3.66 5.8575 3.66375 5.91375 3.53375L6.22875 2.7975C5.785 1.38 4.565 0 2.4825 0C1.62 0 0.70875 0.285 0 0.88625C0.62625 0.475 1.36 0.27875 2.06 0.27875ZM9.9775 0C9.31625 0 8.71375 0.14375 8.24375 0.43375C8.57375 0.30625 8.9825 0.27875 9.3875 0.27875C11.4137 0.27875 13.2275 1.815 12.4088 5.36625C11.7063 8.415 7.60125 12.1137 6.3475 13.525C6.2675 13.615 6.24 13.76 6.24 13.76C6.24 13.76 12.6638 9.10875 13.5375 5.375C14.41 1.6425 12.2213 0 9.9775 0Z" fill="#C39B2C"/>
</svg>
