<svg width="20" height="21" viewBox="0 0 20 21" fill="none" xmlns="http://www.w3.org/2000/svg">
<path d="M11.9722 1.64209C12.0029 1.60329 12.041 1.57094 12.0842 1.5469C12.1274 1.52287 12.175 1.50763 12.2241 1.50205C12.2733 1.49647 12.323 1.50067 12.3706 1.51441C12.4181 1.52815 12.4624 1.55115 12.501 1.58209L13.311 2.23159L10.3492 6.00109H12.2572L14.4833 3.16909L16.3612 4.67359C16.4006 4.70509 16.4332 4.74421 16.4571 4.7886C16.481 4.83299 16.4957 4.88174 16.5003 4.93194C16.5049 4.98214 16.4994 5.03275 16.484 5.08076C16.4686 5.12876 16.4437 5.17317 16.4108 5.21134L15.7297 6.00109H17.6903C17.9485 5.6109 18.0515 5.13828 17.979 4.67603C17.9066 4.21379 17.6639 3.79533 17.2987 3.50284L13.4385 0.411337C13.2457 0.25694 13.0242 0.142172 12.7869 0.0736264C12.5495 0.0050809 12.301 -0.0158904 12.0555 0.0119175C11.8101 0.0397254 11.5725 0.115764 11.3566 0.235665C11.1406 0.355566 10.9504 0.516964 10.797 0.710587L6.60675 6.00109H8.52L11.9722 1.64209ZM13.5 12.7511C13.3011 12.7511 13.1103 12.8301 12.9697 12.9708C12.829 13.1114 12.75 13.3022 12.75 13.5011C12.75 13.7 12.829 13.8908 12.9697 14.0314C13.1103 14.1721 13.3011 14.2511 13.5 14.2511H15.75C15.9489 14.2511 16.1397 14.1721 16.2803 14.0314C16.421 13.8908 16.5 13.7 16.5 13.5011C16.5 13.3022 16.421 13.1114 16.2803 12.9708C16.1397 12.8301 15.9489 12.7511 15.75 12.7511H13.5ZM2.25 3.75109C1.65326 3.75109 1.08097 3.98814 0.65901 4.4101C0.237053 4.83205 0 5.40435 0 6.00109V16.8761C0 17.7712 0.355579 18.6296 0.988515 19.2626C1.62145 19.8955 2.47989 20.2511 3.375 20.2511H16.125C17.0201 20.2511 17.8785 19.8955 18.5115 19.2626C19.1444 18.6296 19.5 17.7712 19.5 16.8761V10.1261C19.5 9.23098 19.1444 8.37254 18.5115 7.7396C17.8785 7.10667 17.0201 6.75109 16.125 6.75109H2.25C2.05109 6.75109 1.86032 6.67207 1.71967 6.53142C1.57902 6.39076 1.5 6.2 1.5 6.00109C1.5 5.80218 1.57902 5.61141 1.71967 5.47076C1.86032 5.3301 2.05109 5.25109 2.25 5.25109H5.685L6.882 3.75109H2.25ZM1.5 16.8761V8.12359C1.73475 8.20609 1.9875 8.25109 2.25 8.25109H16.125C16.6223 8.25109 17.0992 8.44863 17.4508 8.80026C17.8025 9.15189 18 9.62881 18 10.1261V16.8761C18 17.3734 17.8025 17.8503 17.4508 18.2019C17.0992 18.5535 16.6223 18.7511 16.125 18.7511H3.375C2.87772 18.7511 2.40081 18.5535 2.04917 18.2019C1.69754 17.8503 1.5 17.3734 1.5 16.8761Z" fill="white"/>
</svg>
